<svg xmlns="http://www.w3.org/2000/svg" xmlns:xlink="http://www.w3.org/1999/xlink" viewBox="0 0 6000 3137">
  <g id="iphone_body" class="g_to_interact_with" style="isolation: isolate">
    <path d="M2472,3107v-3h-2c-4.1-2.43-13.21-.58-18-2-16.81-5-34.36-7-50-13-7.51-2.89-15.52-9-22-13s-13.92-3.92-20-8c-9.37-6.28-17.2-16-25-24-8.14-8.38-18.14-15.38-26-24-3.37-3.7-4.15-8.66-7-13-3-4.56-8.29-9.29-11-14-14.48-25.13-21.15-56.27-29-88-1.78-7.2-.74-16.85-2-22v-82c-.58-1.84-3.41-4.88-4-7-2.35-8.51,1.9-15.4,2-23V880c0-18-2.47-43.48,0-58V382c0-10.74-5-20.36-2-31,.59-2.12,3.42-5.16,4-7V319c0-20.86-2.29-47.51,2-65V238c.53-1.64,3.47-4.36,4-6V220c1.17-4.37,2.25-10.73,4-16,4.49-13.51,11.35-27.23,17-39,2.2-4.59,1.47-9.08,4-13,4.54-7,12-13.7,16-21,2.43-4.42,2.72-8.64,6-12,8.4-8.59,14.26-11.86,21-23,5.89-9.73,36.84-26.62,49-32,21.37-9.46,44.74-16.94,71-23,13.74-3.17,31.36-4,46-4h25c16-3.46,41.12-2.53,54,1h753c74.51,0,162.24-5.59,222,10h13c38.85,10.92,76.61,30,102,55,27.36,27,48.92,63.06,61,105,3.8,13.19,4.86,27.28,8,40l3,209c1.61,7.45,1,18.91,1,28,0,25.86-2,46-2,71V744c-.63,2.21-3.37,4.79-4,7V954c-.67,3.33-1.33,6.67-2,10,.79,2.57,5.07,5.68,6,9v27c0,23.6-2,41.26-2,65a75.81,75.81,0,0,0,2,18v176c2.38.85,4.49,1.25,6,3,2.27,3,.27,37.79,0,51-.93,45.76-1,95.6-1,143q-1,277-2,554-.49,332-1,664v227c-4.07,16-5.93,33.86-11,50-.66,2.09-3.28,4.22-4,6-7.5,18.4-13.56,34.06-23,50-1.5,2.53-5.55,5.45-7,8-.33,1.67-.67,3.33-1,5-4.2,6.43-11.6,11.6-17,17-18.53,18.52-37.71,34-62,47-5.42,2.9-10.38,2.24-16,5-3.23,1.58-8.72,5.83-12,7h-7c-10.48,3.06-24.67,7.52-35,11-8.09,2.72-19-.75-26,3v2H2489c-.21-.11-1.39-2.73-2-3Z" fill-rule="evenodd"/>
    <path d="M1628,3112H1286V1765c0-8.73,2.46-21.33-1-26-4.58-3.77-10.58-6-11-14a4.56,4.56,0,0,0-1-4c-3.2-3.08-8.24-5.6-11-9-.33-1.33-.67-2.67-1-4-1.1-1.12-4.24-.56-5-2v-51c-3.06-1.5-7.72-.46-11-2-1.6-.75-1.75-4-3-5l-10-1c-2.55-1-4.13-4.24-6-6,0-10.73,3-29.42-1-38-.79-1.67-4.28-2.93-5-5V1154l5-4q.49-13,1-26c2.91-1.18,3.74-.91,5-4,1.75-2.64,1.13-9.69,1-14,6.08-1.92,3.25-4.17,6-6h14c1-.8.27-.35,2-1,3.06-6,2-18,2-27v-58a62.58,62.58,0,0,1-13-10c-.67-1.33-1.33-2.67-2-4h-8a49.27,49.27,0,0,1-7-7V962c-8.47-7.78-6-19.39-6-35V507c8-4.07,6.34-18,6-30,10.83-3.37,1.73-5.73,6-12l4-1c1.28-1.11.81-3.81,2-5s3.9-.7,5-2c.33-1.33.67-2.67,1-4l11-2c3.91-11.7,1.08-32.23,1-46,1.08-.91.08.08,1-1,4.64.2,7.93.33,10-2,3.54-4.72-2.15-9.23,1-15,.85-1.56,5-1.29,6-3,4.4-7.54.11-24.05,0-33,11.19-6.41,2.1-3.95,6-12,.92-1.89,5-1.38,6-3,2.3-3.8,0-37.81,0-47,0-54.27,1.43-110.57,0-162l6-3c.3-4.09-2-34.77,0-39l6-4V73c.68-1.36,2.82-1,4-2l4-6h303l3,6c1.7,1.31,4,0,5,2,1.75,3.6-2,4.7,0,8l5,3V99c1.21,5.07,4.76,8.64,6,13V3035C1628,3060.21,1629.12,3090,1628,3112Z" fill-rule="evenodd"/>
    <path d="M4658,3112H4368c-2.5-31.38,0-72.21,0-107V138h6c1-1.77,1.26-1.68,2-4,1.12-3.13.09-16.43,0-23,7-2.53,9.12-11.36,15-14h240c3.13,4.3,3.75,1.4,9,4,8.62,4.27,10.16,20.9,10,35l7,4c-1.86,9.46-1,22.91-1,34v63c0,7.68-1.94,30.29,1,35,4.15,12.53,21.78,21.81,29,32,4.66,6.57,2,38.53,2,50,3.69,2.32,6.09,3.12,13,3,2.24-1.4,3.28-.55,6,0,1.12,2.09,1.43,1.83,2,5-4.14,4.58-4.3,20.57-3,27l9,2V790c-2.45,1-4.7,1.62-6,4-2.87,4.57.27,24,0,29-6.19,2.87-9.91,1.61-18,2-3.75,6.22-3,17.57-3,28v60c.8,1,.35.27,1,2h2c4.76,3.13,12.11-.71,17,3,.8,1.18.77,1.68,1,4-4.13,5.4-3.72,21.65-4,30a15.61,15.61,0,0,0,5,1c1.22-3.1.37-2.26,4-3v1h1c1.88,39.29,0,87.37,0,130v268c-5.66,2.84-7.35,3.84-7,13,2.49,3.84,1.13,15.22,1,21-1.77,1-1.68,1.26-4,2-3.16,1.68-9.4-1.14-15,1-5.45,10.51-2.12,35.64-2,50-4.31,4.44-7.08,10.15-11,15-5.57,6.89-16.32,12.6-19,22V3070C4658,3083.84,4658.92,3101.27,4658,3112Z" fill-rule="evenodd"/>
    <path d="M2492,158c-6.37,4.31-27.56,5.22-36,9-34.11,15.29-58.18,42.25-73,77-5.58,13.09-8.73,40.78-5,56,2.23,9.08.17,16,3,24,15,42.46,40.72,69.52,83,85,13.62,5,27.7,7,48,7h14c47.74-12.54,79.24-34.88,99-75,15.58-31.65,13.16-78.71-2-108C2598.59,185.85,2564.1,157.75,2492,158Z" fill-rule="evenodd"/>
    <path d="M2772,160c-5.67,3.82-14.18,3.63-20,7-14.74,8.53-24.94,23.66-31,41-2.54,7.25-2.21,24.69,0,32,6.56,21.71,24,41.92,46,48h14c2.62.74,5,3.44,11,2,22.87-5.49,38.95-14.95,50-32,24.54-37.87-4.09-82.87-32-95C2800.3,158.78,2785.42,159.84,2772,160Z" fill-rule="evenodd"/>
    <path d="M2763,322c-6.87,4.95-22.77,5-31,9-17.33,8.42-37,20.15-48,35a175.23,175.23,0,0,0-28,58c-14.39,52.18,22,112.07,48,131,7.26,5.28,24,15.92,32,19,8.6,3.32,17.76,1.48,27,4,6.19,1.69,11.15,4,20,4h31c1.59-.55,3.41-3.43,5-4h9l10-5c1.33-1.38.56-4.75,2-6,2.54-2.2,7.24-3.42,10-5v-1l9-1c3.95-2.82,5.3-10.76,10-13,2-.93,4.53.87,5,1,2.58.71,7.43-6.55,8-9-2.63-5.33,8.26-12.8,11-17,9.57-14.69,14-32.77,19-52V455c0-22.74-3.21-37.72-9-53-17-44.87-50.56-67.17-100-80Z" fill-rule="evenodd"/>
    <path d="M2487,482c-4.25,3.15-10.19,2.13-16,4-4.88,1.57-10.6,6.34-15,8-6.59,2.48-10.5,2-16,5-25.72,14.1-51.49,52-60,84v36c0,60.71,40.54,98.29,85,115,1.58.59,3.41,3.46,5,4h9c1.57.53,3.42,3.48,5,4h44c51.95-17.51,79.06-37.49,101-85,10.89-23.59,6.23-79.34-5-97-4.9-7.71-6.49-16.33-11-24-2.7-4.59-8.27-8.27-12-12-19.49-19.49-40.84-33.86-72-42Z" fill-rule="evenodd"/>
    <path d="M2878,539c2.54,1.46,1.13-.22,2,3h-2Z" fill-rule="evenodd"/>
    <circle cx="2877" cy="543" r="1.41" />
    <path d="M2873,544c3.25.83,1.53-.49,3,2h-3Z" fill-rule="evenodd"/>
    <path d="M2834,570h2C2834.81,571.61,2835.58,571.22,2834,570Z" fill-rule="evenodd"/>
    <path d="M2883,596c-1.07.75-.95.6-3,1-2,2.52-3.72,2.52-5,6-1.76,2.56-.64,6.19,0,9,3.07,2.12,7.28,6.7,11,5,4.18-1.41,5.23-4.33,8-7,.24-7.58-1.55-11.23-7-13C2885.82,596.2,2885.32,596.23,2883,596Z" fill-rule="evenodd"/>
    <path d="M2773,610c-5.16,3.78-13.42,3.94-19,7-15.4,8.46-27,25.21-32,44-8.43,31.8,18.71,63,34,72l11,3c6.4,2.29,18.41,6.83,29,4,40-10.68,73.1-52.89,47-100C2830.67,617.75,2808.84,609.54,2773,610Z" fill-rule="evenodd"/>
    <path d="M1461,1120c-8.19,5.74-17.33,6.91-22,16-7.12,13.87,1,31.73,1,50v129c0,32.94-4.74,56.42,18,68,4,2,13.19,5,21,3,29.8-7.61,25-44.72,25-82V1182c0-26.86.92-48.47-15-59C1482.91,1119,1471,1119.88,1461,1120Z" fill-rule="evenodd"/>
    <path d="M4460,1863h4v-11h2v278c3.91,5.31-.52,14.48,2,22,.53,1.58,3.47,3.42,4,5v13c0,10.69,0,23.26,2,31,1.87,7.22-3,15,0,20,2.86,8.5,21.62,21.5,31,24h19c2.52,1,2,2.68,7,3,3.42-4,11.7-4.88,16-8,6.45-4.69,14.34-18.14,17-26v-15c9-34.5,4-95.93,4-138,0-113.79-2-212-2-323v-87c0-15.36,1.2-34.85-2-47v-15c-1.33-3.83-6.66-7.18-8-11-2-5.69,1.88-8.29-3-11-7-5-12,.11-18-1-6.31-1.16-6.61-6.82-16-7-7.37,6.29-19.51,2.09-30,6-1.86.69-16.25,6.76-18,8-3.58,2.53-5.75,8.88-9,12a40.39,40.39,0,0,1-2,12v156C4460,1794.71,4462.38,1832.23,4460,1863Z" fill-rule="evenodd"/>
    <path d="M4494,1568c2.54,1.46,1.13-.22,2,3h-2Z" fill-rule="evenodd"/>
    <path d="M1445,1620c-5.68,6.35-18.48,7.52-26,12-1.51.9-16.1,19-17,21-3.18,7.2,0,18.29-1,26-2.59,20.26-3,51.76-3,79,0,81.83,2,161.31,2,241v99c.79,2.7,3.93,5.74,5,8,.67,3.33,1.33,6.67,2,10l10,9c8.53,11.6,16.32,14,37,14h15c13-3.47,29.52-8.93,36-19,2.83-4.4,3.67-14.95,5-20v-11c.53-1.58,3.47-3.42,4-5V1765c0-31.51,4.33-78.7-4-103-2.4-7,.44-13.52-3-19-4.62-7.36-18.26-17.55-28-20h-20C1454.65,1621.94,1451.14,1620.13,1445,1620Z" fill-rule="evenodd"/>
    <path d="M1442,2279c-4.33,3.52-7.33,2-14,4-8.06,2.42-19.4,12-23,19-10.3,20-5,74.7-5,104,0,29.62.15,60.64-4,85-.49,2.88,1.6,4.38,2,6,1.25,5.08-1.31,9.32-2,12-2.55,9.87.21,27.1,2,34,2.41,9.29.6,27.18-1,35-2.24,11,3,21.22,3,33,0,54.29-8.28,117.58,8,160,.85,2.23,19.61,16.42,23,20,21.8.21,61.42,3.34,73-12,19-25.2,16-70.22,16-115V2345c0-14.17.74-29.17-5-38C1502.67,2288,1473.73,2278.78,1442,2279Z" fill-rule="evenodd"/>
  </g>
  <g id="iphone_button" class="g_to_interact_with" style="isolation: isolate">
    <path d="M3758,640c-6,.16-7.58-.94-15-1-4.36-7.26-3-22.27-3-34V530a18.72,18.72,0,0,0,3-5c4.27-.54,6.95-.81,11,0,2.56,5.71,2.71,9.52,4,18,2.28,15-.21,26.17,0,51C3758.1,605.88,3760.19,622.34,3758,640Z" fill-rule="evenodd"/>
    <path d="M3740,745h4a90.29,90.29,0,0,0,10,11V900c0,23.93,2.39,55.62-1,72l-3,1c-7.35,4.47-15-7-15-13,.08-38.73,1-104,1-154C3736,787,3732.42,757.38,3740,745Z" fill-rule="evenodd"/>
    <path d="M2249,822a30.34,30.34,0,0,1,7,1c3.56,7,2,21.77,2,32v333c-.8,1-.35.27-1,2h-6c-.77-.68-2.23-1.31-3-2-3.48-4.08-2-15.72-2-23V902C2246,883.74,2242.65,832.62,2249,822Z" fill-rule="evenodd"/>
    <path d="M3743,1037c4,1,6.3-.31,8,5,2.07,3.34,1,11.91,1,17v150c0,18.26,2.18,40.54-1,57a25,25,0,0,0-5,4c-1.75-.63-1-.19-2-1-10.25-7-6-37.43-6-54V1091C3738,1072.29,3735.68,1048.31,3743,1037Z" fill-rule="evenodd"/>
    <path d="M1468,1108c13.08.17,25.41,7.16,29,16q1,6.49,2,13c1,2.11,5,4,6,6,5.1,10.3,1,48.89,1,66v82c0,14.76,1.06,33.41-2,45-2.17,8.19,1.28,16.48-2,23-3.55,7.06-9.51,12.74-15,18a147,147,0,0,1-44-4c-3.17-5.36-8.1-11.83-10-18-3.93-12.8-1-33.25-1-48V1204c0-9.51-1.9-51.31,1-56,2.19-6.36,8.08-8.51,12-13,3-3.48,1.56-8.57,4-13,2.82-5.12,10-8.83,14-13C1465.53,1108.93,1466.72,1108.88,1468,1108Z" fill-rule="evenodd"/>
    <path d="M4490,1565c21.15-.15,54.92-2.4,63,11,7.65,12.68,7,31,7,52v93c0,44.79,2,83.44,2,128v47c-5.14,50.73-2,110.87-2,165,0,44.11,2,83.11,2,126v29c-1.55,4.81-6.79,8.78-9,13-2.68,5.1-1.31,7.9-7,10-3.52,2.49-8.91,2-13,4-16.72,8.19-17.82,5.64-32-2-3.67-2-7.63-1.72-11-4-11-7.4-16.26-24.41-20-39-3.23-12.6-2-27.95-2-43v-15c-2.7-11.22-2-28.69-2-43v-71c0-61.71-2-120.74-2-184v-92c-1.34-5.57-2-13.77-2-22v-98c0-13.07-2.76-33.37,2-43C4469.89,1575.09,4479.78,1572.55,4490,1565Z" fill-rule="evenodd"/>
    <path d="M1432,1618h33c3.79,1.15,5.82,5.64,9,7h7c2.9,1,5.52,4.68,8,6,6,3.17,15.59,4.52,18,11,4.44,5.07,3,17.67,3,27v419c0,16.5,0,30.71-12,35-20.49,13.61-88.73,2.8-97-12-5.19-9.29-5-28.72-5-43v-77c0-13.3.54-26.6,3-36V1751c0-19.77-1-43.81,3-59v-38c2-6.2,9.87-10,12-16,2.22-6.23,0-10.19,4-14,2.45-2.31,6.59-2.71,9-5C1429.53,1618.93,1430.72,1618.88,1432,1618Z" fill-rule="evenodd"/>
    <path d="M1434,2278c12.49,0,48.74-3,56,2,4.82,3.3,2.34,9.31,5,15,3.1,6.61,11.53,10.92,14,17,2.69,6.64-1.21,16.26,1,24,1.51,5.3,6.37,13.44,8,20v74c.26.84,2.72,3.16,3,4,4.4,13.44-1,29.48-1,44q.49,12.49,1,25c-1.15,4.71-3.85,11.29-5,16v42c-.07,8.8-2.42,15.22-4,22-3,12.93.56,30.39-2,41v106c0,12.83,2.28,31.79-3,40-6.57,10.2-17.94,12-35,12h-14c-3.92,1.23-6.48,4.25-12,5-2-1.5-4.79-1.52-7-3l-4-5c-7.37-4-14.72,1.2-18-7-3.35-3.89-1.47-10.93-4-16-3.65-7.31-11.52-12.28-14-21-2-7.2-.4-41.77,1-48,.91-4-.61-9.44-1-12v-43c0-71,0-138.79,0-208,0-22.54-2.49-52.37,3-70v-16c0-11.13,1.21-26,5-34C1412.76,2291.76,1423.5,2285.72,1434,2278Z" fill-rule="evenodd"/>
  </g>
  <g id="shadow_Image" data-name="shadow Image">
    <image id="shadow_Image-2" data-name="shadow Image" width="3508" height="3087" transform="translate(1212 21)" xlink:href="iphone_basic.png"/>
  </g>
</svg>
