<svg xmlns="http://www.w3.org/2000/svg" viewBox="0 0 6000 3137">
  <g id="iphone-cover-candyhearts-lightpink" style="isolation: isolate">
    <path d="M2739,34h128c.83.48,5,11.28,6,13,1.8,3.18,6.23,6,8,9,5.63,9.45,7.09,20.87,13,30,27.44,42.37,45.63,93.57,67,142q1,5.5,2,11c9,19.48,15.4,43,24,63,5,11.7,2.95,32.71,15,37,2.45,1.66,5.25.62,8,0,15.49-26.3,20-63.95,33-92q1-5.5,2-11c3.53-8,9.89-17.81,13-26,2.72-7.15,1.94-13.23,5-20,2.21-4.89,7-10.86,9-16,3.16-8.29,3.12-14.34,7-22,7.64-15.09,18.49-31.42,26-47,9.29-19.29,18-37.79,29-55,2.82-4.4,4.49-13.66,9-16h124v4c-6.86,5.2-10.24,12.71-16,19-2.78,3-7.26,4.92-10,8-9.86,11.07-16,25.08-26,36-20.58,22.49-37.71,46-54,73-3.48,5.77-10,11.46-14,17-5.11,7.15-7.39,15.33-12,23-3.7,6.15-10.44,12.42-14,19-4.23,7.81-5.61,15.41-10,23-6.87,11.89-15.73,24.41-22,37-3.63,7.3-4.09,14.23-8,21-5,8.65-12.15,18.15-16,28-15.8,40.38-29,79.19-44,120-3.63,9.87-5.93,35.06-15,38-14.43,4.68-11.65-15.5-15-23-6.77-15.14-10.75-34.72-18-49-2-3.89-2.23-12.15-6-14h-16c.11-26.63-3-46.29-3-71V293c-1.55-5.72-2.08-7.76-2-16a15.61,15.61,0,0,1,5-1V256h-4c-2.39-4.09-3.12-7.65-3-15,2.5-.82,4.65-.73,6-3-4-1.73-8-2.93-9-8,1.4-2.24.55-3.28,0-6-4.75.17-8.53,0-11-2-2.51-2.85-2.77-7.87-5-11l-5-4c-3.26-4.5-4.71-9.46-8-14l-30-29c-5.11-3.08-11.34-8.08-16-10h-4c-2.92-1.39-5.83-5.8-9-7l-8-1c-2.88-1.37-6.41-5.88-9-7h-9c-2.21-.77-7-4.31-9-6-5.33-4.47-6.39-12.73-11-18-7.67-8.76-16.17-17.36-24-26-2.64-2.91-3.41-7-6-10-8.49-9.9-16.77-20.77-26-30C2746.32,44.32,2740,42.48,2739,34Z" fill="none" fill-rule="evenodd"/>
    <path d="M2369,192v6c-16,11.29-32.19,61.45-38,85v23c-.79,2.21-4,2.52-5,4s-.15,4.79-1,6c-5.83-8.52-37-8-52-8-4.52,0-11.37.75-13,0-5.73-2.73-3-22.88-3-31V180a18.33,18.33,0,0,0,3-7c2.89-1,7.67-1.06,12-1,7.9,5.64,20.87,3.19,32,6,2.64.67,8,.69,12,2,1.64.54,4.36,3.48,6,4,8.45,2.69,16.36,0,24,2C2353.2,187.93,2360.71,191.23,2369,192Z" fill="none" fill-rule="evenodd"/>
    <path d="M3748,172h2V307c-9.58,3.21-26.49,1.08-38,1-5.84,3.83-15.7-.08-24,2-14.23,3.56-34,4.49-48,8h-10c-15.73,4.63-36.68,9.87-52,14h-8c-33.79,10.11-68,21.48-100,34-2.2.86-4.23,4.1-6,5h-4c-9.84,4.06-19.21,8.74-30,13-11.14,4.39-22,13.22-32,19-12.47,7.21-26.16,11.2-38,19-7.36,4.85-14.61,12.54-22,17-47.4,28.62-87.05,64-125,102-7.58,7.59-16.88,14-24,22-8.9,10-15,22.12-24,32-15.09,16.53-30.43,34-43,53-2.54,3.82-2.57,7.92-5,12-4.68,7.87-13.52,14.85-18,23-2.11,3.83-1.82,7.22-4,11-3.68,6.37-10.59,12.59-14,19-5.41,10.18-8.24,19-14,29-2.21,3.83-10.75,9.34-12,12v12l-3,3c-.33,3-.67,6-1,9-14.17,32.27-30.22,65.19-38,104-3.79,2.83-4.5,5.45-11,6-3.29-3.32-6.36-3.71-7-10-2.93-4.93-1.14-12-3-18-2.57-8.3-7.73-18.45-11-26q-1-5.5-2-11c-6.34-13.72-11-25.75-17-41-3.56-9-11.14-17.2-15-26q-1-6-2-12c-5-13-16.55-20.37-17-39,7.8-7.06,4.34-19.14,20-19v1c12.13,4.11,12.41,17.06,17,29,2.91,7.58,8.81,15.18,11,24q-.49,13.5-1,27c9.64,3.55,11.95,6.29,16,15,3.55,7.64.88,14,9,17,1.42,1,3.27,1,6,1,3.89-4.1,9.85-8.35,12-14,2.58-6.78,1.63-11.5,7-15l14-4c3.69-5.76,1.13-23.88,1-32-3.11-3.92-2-12.77,0-18s7.92-11.66,10-17c2.44-6.27,1.83-11.31,5-17,6-10.84,9.84-23.8,16-35,2.55-4.63,7.46-10.37,10-15q2-6,4-12c12.63-19.79,24.33-39.79,36-61,4-7.26,11.26-13.41,16-20,101.37-141.13,232.66-251.07,407-319,8.16-3.18,15.45-2.83,24-6,33.81-12.54,73.08-23.11,110-33,8.49-2.27,19.41.78,28-2,1.64-.53,4.36-3.47,6-4,5.38-1.73,15.64-.92,20-2C3738.2,172.47,3743.87,174.93,3748,172Z" fill="none" fill-rule="evenodd"/>
    <path d="M3563,596c71.17-.7,127.85,3.62,185,15,4.29,17.19,2,43.45,2,64v66c0,13.46.6,29.58-2,40h-4c-3.48-3.09-7-1.83-12-4-6.65-2.92-16.23-6.86-23-10l-11-2c-43.71-19.08-102.1-29-164-29-14,0-31.1-.72-42,2h-28c-30.76,7.77-63.51,9.65-90,21-8.67,3.72-16.83,2.21-25,6-16.91,7.84-36.83,13.43-54,22-5.05,2.52-10.39,7.33-15,10-12.14,7-24.83,11.27-37,18-4.2,2.33-7.08,7.47-11,10-7.12,4.59-14.2,7.13-21,12-4.53,3.24-8.45,8.87-13,12-3.59,2.47-7.81,3.16-11,6-3.78,3.36-6.26,8.58-10,12-2.88,2.64-7.07,3.39-10,6-6.6,5.87-11.74,13.74-18,20-20.2,20.23-41.15,40.49-58,64-2.11,3-2,5.72-4,9-6.58,10.89-17.22,21-24,32-4.7,7.64-5.57,16.33-10,24-5.64,9.76-13.55,21-18,32-3.92,9.71-7.85,18.34-12,27q-1,5.51-2,11c-4.22,9.7-6,14.82-13,22h-8c-1.32-1.43-3.67-1.63-5-3-3.23-3.32-2.14-8-4-13-1.2-3.19-4.72-7.12-6-10-3.3-7.46-2.56-14.12-6-21-8.07-16.17-17.26-33.87-26-49-3.68-6.36-4.11-13.67-8-20-15.68-25.49-34.35-49.37-54-71-2.63-2.89-3.38-7.06-6-10-9.62-10.79-21.76-19.77-32-30-7.59-7.58-14-16.88-22-24-3.85-3.43-8.79-5-13-8-1.93-1.39-3.21-4.46-5-6-9.46-8.12-20-13.39-31-20-4.86-2.92-9.1-9-14-12-8.28-5.1-23.65-7.44-25-19l3-1c9.05-5.47,35,2.16,47-1,3.42-.9,12.69-3.11,16-4,4.53-1.22,7.55,2.12,13,0,7-2.72,14-7.65,24-8,6.32,6.9,14.69,12.11,21,19,2.64,2.88,3.39,7.06,6,10,1.48,1.66,4.5,2.36,6,4,5.83,6.38,8.24,15.46,14,22,26.15,29.7,45.62,65.35,66,101,5.28,9.24,7,19.55,11,30,1.84,4.84,6.94,9.8,9,14q1,5.5,2,11c1.39,3,4.74,8.09,6,11,.33,2.67.67,5.33,1,8,3.12,9.06,6,13.87,12,20l10-1c9.94-16.64,14.83-36.23,22-56,.59-1.62,3.29-3.41,4-5,4.87-10.84,7.32-21.68,13-32,1.25-2.27,4.75-4.73,6-7,3.8-6.9,4.18-13.69,8-21,1.7-3.25,6.2-5.8,8-9,9.64-17.11,17.93-31.84,30-46,3.48-4.08,4.42-10.07,8-14,1.49-1.64,4.53-2.34,6-4,2.32-2.62,2.12-5.79,4-9,3.48-6,9.58-10,14-15,2.61-2.94,3.37-7.12,6-10,48.51-53,106.36-98.17,170-136,7.85-4.67,15.57-5.86,24-10,14.28-7,30.42-15.06,45-22,8.21-3.91,17-4,26-7,6.8-2.23,15.78-7.82,23-10,16.31-4.93,32.66-7.86,48-12h11c15.07-4.08,35-5.76,51-10C3545.59,595.73,3557.12,600.48,3563,596Z" fill="none" fill-rule="evenodd"/>
    <path d="M2257,783V611l1-1c8.13.12,19.22,0,26-2,2.21-.65,4.79-3.37,7-4h13c5-1.32,15.89-1.76,22-3,.06,8.13,3.44,7.84,5,13v29a297,297,0,0,0,19,53c2.05,4.25.81,7.66,3,12,5.45,10.8,23.35,23.57,25,36-17,8.33-41,10.06-60,16-2.67.84-5.73,4-8,5l-12,2c-3.19,1.19-7.12,4.73-10,6l-8,1C2272.68,776.79,2266.55,782.31,2257,783Z" fill="none" fill-rule="evenodd"/>
    <path d="M2628,1032c31.34-.5,68.59-2.38,94,4h10c86.33,22.53,145.17,56.37,197,113,2.64,2.88,3.39,7.06,6,10,2.1,2.35,5.92,3.63,8,6,3.79,4.3,4.68,11.34,8,16,10.19,14.3,22.5,30.41,30,47,4,8.82,11.69,38,19,41,2.67,1.84,7.11.66,10,0,5.84-9.75,7.4-21.91,13-33l3-2c5.47-8.68,7.75-19.18,13-28,1.77-3,6.24-5.81,8-9,6.12-11.08,11-20.75,18-31,7.56-11,18.66-19.67,28-29,15.88-15.86,32.27-33.19,51-46,9.54-6.52,20-9.77,30-16l6-6,9-2c14.83-7.37,33.52-15.3,49-22l12-1c2.37-.69,5.36-3.26,8-4,6.07-1.7,9.9-.4,16-2,63-16.5,152.88-3.12,197,19l11,2c10.42,5,21,12.82,31,18,2.71,1.4,5.58.45,8,2,32.72,20.92,67.35,50,90,81,7.85,10.75,19.36,19.86,26,32q2,6,4,12c4.49,7.64,11.74,16.56,15,25v5c1.49,3.83,6.53,7.16,8,11,.33,2.67.67,5.33,1,8,2.71,5.7,7.1,13.19,9,20v9c.64,2.21,3.35,4.79,4,7v9c.54,1.58,3.46,3.42,4,5v9c1.48,5.52,4.52,13.48,6,19v97c-2.43,9.38-7.12,23.15-10,32v10c-2.06,7.67-6.33,18.6-9,26q-1,6-2,12c-2.41,6.63-7.16,13.09-10,19q-1,5.51-2,11c-4,9.18-11.42,18.64-15,28-3,7.83-3.17,13.37-7,20-28.07,48.56-61.9,94.23-98,135-5.43,6.13-8.49,14-14,20-5.8,6.35-14.29,11.59-20,18-2.61,2.93-3.37,7.12-6,10-7.89,8.63-17.72,15.73-26,24s-15.38,18.11-24,26c-2.88,2.64-7.07,3.39-10,6-3.78,3.37-6.26,8.58-10,12-2.88,2.64-7.07,3.39-10,6-5.89,5.25-10.18,12.67-16,18-2.88,2.64-7.05,3.39-10,6-.93.82-1.08,3.17-2,4-2.89,2.63-7.06,3.38-10,6-1.66,1.48-2.36,4.5-4,6-6,5.51-13.88,8.56-20,14-12.5,11.13-25.14,24.45-39,34-29.45,20.3-57.28,43.21-86,64-9.14,6.62-20.44,10.68-29,18-21.8,18.65-48.11,33.7-74,48-7.94,4.38-15,13.8-23,18-3.71,1.94-6.81.94-10,3-13.3,8.6-26.56,17.19-41,25-2.33,1.26-4.86,4.62-7,6-9.19,5.95-19.38,8.87-29,14-3.42,1.83-7.56,7.37-15,5-6.42-2.05-12.8-7.75-18-11-7-4.4-14.81-5.8-22-10-2.59-1.51-5.48-5.34-8-7-13.65-9-27.67-14.7-42-23-4.18-2.42-8-7.34-12-10-14.05-9.29-28.37-18-42-27-71.1-46.92-140.71-93.49-203-149-10-8.92-22.13-15-32-24-2.35-2.14-3.63-5.89-6-8-5.09-4.54-11.22-7.23-16-12-1.61-1.61-2.31-4.5-4-6-2.93-2.61-7.12-3.37-10-6-4.43-4.06-7.52-10-12-14-2.93-2.61-7.12-3.37-10-6-3.77-3.45-6.38-8.37-10-12s-8.55-6.23-12-10c-2.64-2.88-3.39-7.06-6-10-2.13-2.39-5.72-3.72-8-6-8.33-8.33-15.67-17.66-24-26-3.62-3.63-8.55-6.23-12-10-5.51-6-8.56-13.89-14-20-13.09-14.7-28.75-28.59-40-45-5.07-7.39-8.19-16.18-14-23-7.44-8.73-13.16-18.38-20-28l-4-3c-5-8.46-7.31-16.49-12-25-2.46-4.47-7.81-8.23-10-13-3.79-8.25-6.48-21.91-15-25-3.32-2.17-12.86-1.13-18-1v-1c5.6-3.81,3.87-6.18,6-14,4-14.68-3-23.83-7-35q-1-6-2-12c-1.89-5.16-5.48-11.8-7-18V1332c0-19.5-4-48.18,2-64,36.54-96.88,100.11-167.64,192-209,21-9.47,44.69-15.11,68-22C2605.91,1034.07,2620.42,1037.37,2628,1032Z" fill="none" fill-rule="evenodd"/>
    <path d="M3008,1338c-2.33-.2-2.83-.19-4-1-10.57-3.74-4.71-9.64-8-21-3.12-10.78-9.59-25.14-15-35-20.28-37-49-67.52-80-94-2.68-2.29-5.8-2.07-9-4-3.37-2-6.64-6.78-10-9-13.16-8.72-26.14-13.87-42-20-4.62-1.79-9.12-6.31-14-8-18.6-6.43-38.42-9.11-58-14h-36c-42.41,0-69.52,4.45-98,17-7.47,3.29-14.11,2.57-21,6-15.84,7.89-30.5,19.25-45,28-3.18,1.92-6.37,1.68-9,4-52,45.79-81.91,87.84-105,163-2.21,7.18-2.44,15.73-4,22v18c-2.73,11.45-2.85,32.55,0,44v22c.79,3,3.2,7,4,10,2.61,9.88,1.09,16.63,4,26,5.09,16.37,11.62,33.69,18,50,1.36,3.47,5.53,6.66,7,10,.33,3.33.67,6.67,1,10,1.19,3.2,5.43,5.37,7,8s.61,4.35,2,7c5.19,9.92,10.31,19.67,16,30,4.49,8.15,13.27,15.15,18,23,33.16,55.09,77.87,98.82,124,141,2.38,2.18,3.71,5.71,6,8,5.67,5.67,12.3,10.36,18,16,.94.93,1,3.14,2,4,2.26,2,5.54,2.2,8,4,7.1,5.17,12.91,13.72,20,19,20.42,15.22,38.49,31.53,60,46,7.19,4.84,13,12.83,20,18a457.65,457.65,0,0,0,40,26l8,8c7.73,5.73,16.3,11.88,24,17,3.83,2.54,7.88,2.6,12,5,7.93,4.62,14.94,13.41,23,18,17.81,10.14,34.29,19.65,52,30l5,6,12,4c8.94,4.9,34.11,28.44,50,23,4.73-1.62,9.89-6.74,14-9,9.54-5.25,18.61-8.23,28-14,5.08-3.12,10-9.14,15-12,2.74-1.57,5.2-.51,8-2,3.19-1.7,5.95-6.22,9-8,8.22-4.81,16.13-6.84,24-12,5.62-3.69,10.26-10.64,16-14,2.56-1.5,4.4-.55,7-2,9.19-5.1,18.25-14.13,27-20,5-3.37,11-4.46,16-8l10-10c42.13-28.4,79.89-60.11,120-90l10-11a309,309,0,0,0,34-29l16-17c23.36-17.41,44.8-40.47,62-64,6.55-9,17.42-16,24-25,19.89-27.19,39.31-53.66,56-84,4-7.35,11.93-16,15-24,.33-2.67.67-5.33,1-8,4-8.35,9.93-18.45,14-27,3.47-7.28,2.54-13.72,6-21,1.08-2.27,4.18-5.3,5-8,5.52-18.14,7.12-37.67,12-56v-46c0-54.57-17.6-97.2-37-133-10.18-18.79-25.46-33.48-40-48-8.92-8.91-16.61-19.63-26-28-5.77-5.14-12.15-7.87-19-12-3-1.8-5.81-6.2-9-8-5.78-3.27-11.12-4.51-17-8l-6-6c-6.37-3.73-12.83-2.85-20-6-13-5.72-29.47-12.8-44-17h-12c-12.87-3.13-29.27-4-47-4-20,0-40.23.29-55,4h-12c-62.27,20.34-112.3,47.33-151,91-3.53,4-4.44,10.08-8,14-1.5,1.64-4.52,2.34-6,4-2.58,2.9-3.27,7.28-6,10-1.11,1.11-4,.84-5,2,0,0-9.91,22.7-10,23-.33,3.33-.67,6.67-1,10l-10,10a121.1,121.1,0,0,0-5,12v10C3011.45,1328.22,3008.14,1326.62,3008,1338Z" fill="none" fill-rule="evenodd"/>
    <path d="M2839,1378h54c34,8.33,57,24,78,45,6.95,7,17.6,18.31,21,28,4.34,12.37-1.14,25.44,15,26,1.92-3,5.85-5.49,7-9v-15s4.76-9.62,5-10c19.94-31,54.17-54.61,95-65h55c2.35.67,5.4,3.19,8,4l21,5c39.95,19,69.05,52,82,98v67c-.7,2.69-3.19,5.61-4,8-5.95,17.44-10.42,33.1-19,48-5.55,9.63-14.86,18.73-21,28-5.87,8.86-10,17.38-17,25-9.16,10-20.39,18.4-30,28-7.61,7.61-14.07,16.74-22,24-15.45,14.13-34.28,24.09-50,38-20.3,18-43.79,31.75-67,47-11.05,7.26-23.57,17.65-36,23-20.17,8.68-34.55-10.34-45-16-37.51-20.3-71.32-44.85-102-72-10.05-8.89-22.13-15-32-24-6.54-6-11.72-13.72-18-20s-14-11.45-20-18c-2.63-2.88-3.39-7.06-6-10-4.12-4.62-10.34-7.92-14-13l-8-15c-2.58-3.64-7.73-7.2-10-11-1.71-2.86-1.24-5.32-3-8-1.59-2.42-5.72-5.45-7-8-1.9-3.78-.95-6.77-3-10-2.58-4.06-7-9.44-9-14q-1-6-2-12c-2.5-6.86-7.07-16.24-9-24v-57c.63-2.21,3.36-4.8,4-7v-9c1.6-4.72,6.54-11.12,9-15,3.17-5,3.17-10.88,6-16,5.79-10.47,38.82-43.56,50-48s21.41-9.14,32-13C2831.38,1379.4,2835.69,1380.32,2839,1378Z" fill="none" fill-rule="evenodd"/>
    <path d="M3746,2065h-36c-3,3.8-7.4,4.8-11,8-1.69,1.5-2.39,4.39-4,6-6.22,6.21-13.55,12.11-20,18-6,5.51-13.87,8.57-20,14-12.3,10.89-23.7,24.28-37,34-5.9,4.31-13.46,7.12-19,12-7,6.16-13.46,14.54-21,20-4.25,3.08-9,4.6-13,8-4.12,3.54-8.32,9.18-13,12-3.2,1.93-6.32,1.71-9,4-40.65,34.7-83.85,66.75-129,97-4.29,2.87-7.83,8.13-12,11-6.79,4.68-14.28,7.21-21,12-43.3,30.88-86.74,63.25-134,90-9.22,5.22-17.93,14.6-27,20-49.36,29.41-95.38,59.08-147,86-5.43,2.83-10,9-15,12-6.6,3.92-13.6,4.91-20,9-6.76,4.31-16.06,11.46-24,14h-18c-13.19-3.49-33.12-18.37-45-25-41.1-22.94-80.79-45.81-121-70-11.16-6.72-23.46-17.47-35-24-30.43-17.22-58.61-37.94-87-57-5.83-3.92-11.7-5.25-18-9l-3-4c-10.47-7.47-20.62-13.79-30-22-5.31-4.64-12.85-6.29-19-10-5.73-3.45-11.9-9.66-17-14-4.31-3.67-10.29-4.76-15-8-2.76-1.9-4.52-5.82-7-8-2.63-2.32-5.82-2.08-9-4-3.37-2-6.66-6.75-10-9-8.07-5.43-15.91-9.44-24-15-10.79-7.42-20.33-18.35-31-26-43.71-31.32-86.26-62.88-126-98-8.67-7.66-19.51-12.24-28-20-1.64-1.5-2.34-4.52-4-6-4.37-3.89-9.89-5.91-14-10-1.62-1.61-2.31-4.5-4-6-10.73-9.56-23.43-16.33-34-26-4.43-4.06-7.51-10-12-14-4.69-4.17-11.39-5.78-16-10-5.13-4.69-8.81-11.38-14-16-4.3-3.84-13.59-6.69-16-12V1900c2.62-2.49,1.91-3.49,7-4,7.23,7.42,15.67,13.68,23,21,3.61,3.61,6.21,8.62,10,12,2.93,2.61,7.12,3.37,10,6,3.77,3.45,6.38,8.38,10,12,7.67,7.67,16.33,14.34,24,22,1.61,1.61,2.31,4.5,4,6,59,52.52,118.41,105.35,183,152,12.08,8.72,23.8,20.14,35,30,8.73,7.68,21.42,13.08,31,20,6.08,4.4,10.82,11.57,17,16,13.45,9.64,27.39,16.64,41,26,2.76,1.9,4.52,5.81,7,8,3.21,2.84,7.39,3.53,11,6,7.27,5,14.65,12.13,22,17,2.67,1.77,5.15,1.29,8,3,11.91,7.15,22.7,19.05,35,26,10.8,6.1,20.86,11.07,31,18,5.73,3.91,10.84,10.52,17,14,5.79,3.27,11.12,4.51,17,8,3.37,2,6.66,6.78,10,9,4.25,2.82,9.51,3.52,13,7,2.73,2.72,3.42,7.09,6,10,1.48,1.66,4.5,2.36,6,4,3.92,4.29,7.08,8.86,11,13,4.69-1.26,8.49-2.13,14-1,.93,1.61,4.79,10.24,6,11,1.78.72,3-1.92,7-1,1.16.27,4.05,2.69,5,3l10,1c9.71,4.29,20.74,13.8,28,21-.1,6.24,0,13.21,1,18,5.28,2.52,10.25,7.46,16,9,5.3,1.42,11.83-1,17,0,1.57,2.94,3.39,7.92,6,10,3.1,2.33,6.78,1.33,11,3,11.35,4.5,21.83,13.84,37,14,.33-2,.67-4,1-6,34.94-21.89,71.06-42.66,108-63,6.42-3.54,12.89-10.32,19-14,10.7-6.44,21.58-10.22,32-17,5.39-3.51,10.62-9.76,16-13,13.4-8.07,25.21-14.39,39-22,12.24-6.75,23-18.85,35-26,50.67-30.19,95.61-64.48,144-97,7.84-5.27,14.19-13.65,22-19,9.1-6.24,18.72-10.9,27-18,1.71-1.47,3.07-4.83,5-6,3.17-1.92,6.38-1.68,9-4,11.21-9.92,22.8-21.17,35-30,6.85-4.95,14.72-8.4,21-14,3.07-2.74,4.95-7.22,8-10,3.91-3.57,10-4.47,14-8,1.66-1.47,2.36-4.5,4-6,8.47-7.74,19.43-12.36,28-20,4.48-4,7.57-9.94,12-14,6.73-6.16,15.17-9.92,22-16,3.08-2.74,5-7.22,8-10,5.32-4.86,12.6-7.19,18-12,1-.86,1.06-3.07,2-4,4.35-4.32,9.66-7.66,14-12,2.29-2.29,3.62-5.82,6-8,2.88-2.64,7.07-3.39,10-6,5.19-4.62,8.87-11.31,14-16,2.88-2.64,7.06-3.39,10-6,3.8-3.38,6.39-8.39,10-12,7.67-7.67,16.33-14.33,24-22,8-8,14.94-19.36,25-25,.18,7.17,2.71,7.54,4,12v125C3743.23,2034.68,3745.71,2054.81,3746,2065Z" fill="none" fill-rule="evenodd"/>
    <path d="M3746,2454v23h-1c-1-.8-.27-.35-2-1v-12l-8-1c-1.63,2-5.84,2.91-7,5-1.6,2.88.8,5.5-2,7h-8l-6,6c-3.38,2.31-6.6,2.72-10,5-5.93,4-10.1,11.24-16,15-4.21,2.68-9.4,2.83-13,6-38.25,33.65-81.83,62.4-125,91-13,8.6-25.25,20.26-38,29-19.22,13.18-38.59,24.14-58,37-28.86,19.13-55.56,39.65-87,57-7,3.88-12.36,12-19,16-55.64,33.36-108,68.57-165,100-3.2,1.76-6,6.23-9,8-13.37,8-27,12.57-40,21-27.16,17.63-56.52,34.45-86,50-10,5.27-34.24,24.88-54,18-3.67-1.28-6.93-6-10-8s-6.24-1.09-10-3c-2.07-1.05-4.81-4.85-7-6-18.44-9.66-34.43-18.26-51-29-3.2-2.08-6.25-1.09-10-3-2.55-1.3-5.57-5.4-8-7-7.11-4.69-14.69-6.6-22-11-3-1.79-5.8-6.23-9-8-99.36-54.87-192.41-117.51-285-179-9.95-6.61-19.61-10.75-30-17-6.65-4-12.67-11.45-19-16-10.67-7.68-21.56-13.12-33-20-6.26-3.76-11.86-10.88-18-15-19.07-12.79-38.19-24.21-55-39-4.21-3.71-10.32-4.8-15-8-3.77-2.58-7.29-7.33-11-10-19.36-13.93-38.41-26.63-56-42-3.23-2.82-6.8-1.78-11-4-1.9-1-3.37-4.6-5-6-5.52-4.72-12.66-7.13-18-12-1.64-1.5-2.34-4.53-4-6-4.92-4.38-11.5-6.21-17-10-2.76-1.9-4.52-5.81-7-8-3.58-3.16-21.44-10.77-23-13V2324a14.17,14.17,0,0,1,4-1c9.9,14.24,46.7,29.65,52,45,1.19,3.45.51,9.35,1,12,11.13,6.64,18.93-.71,29,6s19.32,16.91,29,24c23.57,17.26,47.09,32.92,71,50l7,8c8.83,6.31,18.21,9.72,27,16l9,10c6.83,4.89,14.16,7.13,21,12,18.95,13.5,38.07,28.67,57,42,4.81,3.39,10.3,4.64,15,8l6,6c3.51,1.95,6.9,1.79,10,4,4.47,3.18,8.44,8.79,13,12,3.12,2.19,6.47,2.06,10,4,11.5,6.34,21.54,17.58,33,24,15.31,8.57,28.88,18.88,43,28l7,2c8,5.14,15.66,13.41,24,18,28.15,15.5,52.8,32.5,81,48,18.73,10.29,36.32,25.64,55,36,5.11,2.83,9.88,3.19,15,6,5.33,2.93,9.8,9.12,15,12s11,2.82,16,6c6.2,4,13.4,10.38,20,14,5.13,2.81,9.88,3.17,15,6,4.22,2.33,7.78,7.49,12,10,7.44,4.44,15.55,5.26,23,10,5.1,3.25,10.35,9.09,17,11,21.58,6.19,46.73-15.56,59-22,13.85-7.27,26.84-16.39,40-24,6.64-3.84,13.76-4.87,20-9,3.35-2.22,6.63-7,10-9,14.17-8.45,28.37-13.45,42-22,10.41-6.54,21.32-15.81,32-22,7.29-4.22,13.67-5.95,21-10,5.3-2.92,9.94-8.71,15-12,3.16-2.06,6.79-2,10-4,14.84-9.27,29.06-19.2,45-28,9.25-5.11,17.95-14.61,27-20,4.08-2.43,8.18-2.47,12-5,12.05-8,23.71-19.67,36-27,4.08-2.43,8.17-2.47,12-5,6.57-4.35,13.27-10.62,20-15,3.16-2.05,6.82-2,10-4,8.26-5.29,15.46-14.84,24-20,10.43-6.3,21.13-10.94,31-18,8.73-6.24,17.34-14.42,27-20,3.78-2.18,7.16-1.92,11-4,4.91-2.66,9.47-7.82,15-10,4.52-1.78,7.81-1.19,11-4,2.39-2.11,3.71-5.75,6-8,3.44-3.39,8.36-4.75,12-8,4.48-4,7.56-9.94,12-14,8.13-7.44,19.7-10.66,28-18,3.12-2.76,5.39-7.81,9-10,6.08-3.69,11.8-5.54,17-10,1.71-1.47,3.07-4.83,5-6,7.88-4.77,16.29-8,23-14,3.9-3.47,6.65-9,11-12,3.72-2.57,7.38-3.4,11-6s7.2-7.71,11-10c3.17-1.91,6.38-1.68,9-4,8.7-7.7,17.57-17.17,27-24,6.9-5,14.56-8.47,21-14,6.09-5.22,11.42-11.14,19-15,.18,7.17,2.71,7.54,4,12v115l-1,1Z" fill="none" fill-rule="evenodd"/>
    <path d="M2568,3093c.16-6.37,1.81-19.68-1-24-3.35-9.37-13-11.18-21-16-7.43-4.47-14.74-12.18-22-17-5.9-3.92-11.85-5.31-18-9-3-1.79-5.8-6.23-9-8-2.6-1.43-4.47-.48-7-2-3.85-2.3-6.88-7.72-11-10-2.6-1.44-4.46-.49-7-2-10.89-6.49-21.21-17.35-32-24-42.46-26.19-83.1-53.36-123-82-14.46-10.37-29.83-19.88-44-30-2.53-1.8-13.77-7.21-15-9V2732a14.17,14.17,0,0,1,4-1c7,9.94,21.86,15.06,32,22,6.61,4.52,13.07,10.76,19,16,4.39,3.88,9.76,4.85,15,8,3.8,2.29,7.37,7.39,11,10,4.89,3.52,9.6,4.76,15,8l3,4c3.61,2.55,8.69,3.11,12,6,8.65,7.55,18.62,15.3,28,22,24.16,17.26,49.41,32.49,75,48,3.6,2.18,9.43,8.87,11,13s-.43,9.6,3,12c3.11-2.73,6.1-3.92,12-4,7.57,6,17.37,7.85,26,13,5.77,3.44,11.47,10,17,14,6,4.31,12.48,6.07,19,10,3,1.8,5.82,6.19,9,8,10.06,5.71,19.23,10.07,29,16,3.85,2.34,6.87,7.72,11,10,31.2,17.25,59.71,35.92,89,55,28.86,18.8,62,32.45,86,56v17c-12.33,4.06-46.3,1-62,1H2585C2582.44,3091.79,2574.75,3092.69,2568,3093Z" fill="none" fill-rule="evenodd"/>
    <path d="M3744,2734h4l1,1c4.55,39.84.05,85.79,0,126-5.64,2.58-8.4,7.2-13,10-13.9,8.46-26.51,16.05-40,25-3.36,2.23-6.63,7-10,9-47,28.45-88.57,63.3-137,90-9.25,5.1-18,14.57-27,20-23.57,14.17-44.78,29.05-69,42-4.14,2.22-7.15,7.7-11,10-7.54,4.51-15.49,5.7-21,12-3.36,3.84-1.17,11.3-4,16-4.65,2.87-45.61,1-55,1H3217a18.26,18.26,0,0,1-1-6c2.23-2.87.94-8.66,3-12,4-6.44,18.7-13,26-17,7.76-4.22,15.69-11.65,23-16s13.69-6,21-10c8.48-4.68,16.72-12.85,25-18,23.82-14.81,46.35-28.4,71-42,9.25-5.1,17.95-14.61,27-20,35.74-21.29,69.56-42.18,104-65,6.17-4.09,11.74-11.24,18-15,16.95-10.19,33.17-18.71,49-30,5.55-4,11.23-10.52,17-14,3.29-2,6.05-1.89,9-4s5.91-6.21,9-8c4.5-2.6,9.25-2.8,13-6a481.62,481.62,0,0,1,39-30c8.54-5.85,19.13-9.28,27-16s16.43-14.14,25-20C3729.27,2742,3737.14,2739.28,3744,2734Z" fill="none" fill-rule="evenodd"/>
    <path d="M2496,2920c3.25-.83,1.53.49,3-2l-1-1h-2Z" fill="none" fill-rule="evenodd"/>
    <path d="M2504,2926c1.57,1.83.88,1.4,4,2v-1A12.5,12.5,0,0,1,2504,2926Z" fill="none" fill-rule="evenodd"/>
  </g>
  <g id="iphone-cover-candyhearts-mediumpink" style="isolation: isolate">
    <path d="M3141,34c-.66,8-6.83,12.54-10,18-2.19,3.76-1.91,7.17-4,11-2.62,4.8-7.63,9.83-10,15-.67,3-1.33,6-2,9-1.74,3.27-6.14,5.9-8,9-4.07,6.78-4.38,14.3-8,21-6.08,11.25-14.37,23.91-20,35-3.89,7.65-3.81,13.72-7,22-2,5.13-6.78,11.1-9,16-3.07,6.76-2.26,12.86-5,20-3.14,8.19-9.47,18-13,26q-1,5.5-2,11c-11.31,24.4-15.6,62.85-33,81a68.69,68.69,0,0,1-14-1c-2.24-3.81-5.33-8.44-7-13q-1-6-2-12c-1.67-3.83-5.7-10.14-7-14v-8c-.83-2.42-4.06-5.61-5-8-9.36-23.82-15.86-47.22-26-69q-1-5.5-2-11c-2.7-6.2-7.26-13.33-10-19q-1-5.5-2-11c-1-2.06-4.82-4.83-6-7-5.29-9.73-7.28-18.65-12-29-2.08-4.56-6.42-9.9-9-14l-3-10c-3-5.09-7.81-11.08-11-16-3.73-5.74-4-11.32-7-18-5-11.09-16.87-20.09-19-33,7.82-2.58,21.39-1,31-1h66c9.86,16.18,12.16,34.15,19,54,.57,1.65,3.46,4.34,4,6v8c2.92,11,7.1,21,14,28a33.79,33.79,0,0,0,8-1c5.29-8.9,9.74-22.23,13-33q1-7,2-14c3.36-7.84,8.15-17.68,11-26,1.84-5.36,2.26-16.8,5-21,5.27-3.28,20.55-1,28-1Z" fill="none" fill-rule="evenodd"/>
    <path d="M2490,37c-.16,6.16-1.7,18.86,1,23,3.95,11.19,23.24,13.37,33,19,15.6,9,26.15,25.8,26,51-50.44-.63-92.64,2.19-125,19-9.52,4.95-28.54,18.48-36,26-5.47,5.51-11.46,16.11-20,18-7.15-5.3-23.9-6.77-33-9h-14c-1.65-.53-4.36-3.46-6-4-6.75-2.2-17.66-2.45-24-4h-12c-2.37-.68-5.35-3.3-8-4-3.33-.88-6.8.42-9-1-.75-1.07-.6-.95-1-3,4.65-3.8,5.74-10.74,9-16,5.64-9.1,12.56-18.3,19-27,18.21-24.6,45.44-44.78,72-61,19.82-12.11,45-19.8,70-26,9.18-2.28,20.4,8.61,31,2-2.08-.37-1.92-.24-3-1h1C2466.67,35.23,2481.15,36.87,2490,37Z" fill="none" fill-rule="evenodd"/>
    <path d="M3571,37c20.81-.37,39.82,7.68,55,14,13.12,5.46,25.42,8.91,37,16,14.89,9.11,28.27,20.62,42,31,7,5.26,11.95,13.72,18,20,7.86,8.16,22.09,25,26,36,2.09,5.88,1.6,15-2,18-3.93,2.78-9,.49-15,2-4.36,1.1-14.66.26-20,2-1.64.54-4.35,3.47-6,4-8.63,2.78-19.49-.32-28,2-36.9,10-76.16,20.49-110,33-8.55,3.16-15.84,2.8-24,6-117.49,46-218.11,112.09-300,194-14.75,14.75-30.38,28.06-43,45l-17,16c-6.9,9.29-12.11,18.71-19,28l-9,8c-10.32,13.83-21.58,28-31,42-3.64,5.43-4.68,11-8,17-1.79,3.23-6.21,5.77-8,9-8,14.34-15.6,27.82-24,41q-2,6-4,12c-5.42,9.93-12.92,20.6-18,31-.67,3-1.33,6-2,9-6.41,13.34-12.86,29.43-20,42-3.43,6-2.43,12.25-5,19-.61,1.6-3.39,3.39-4,5-4,10.53-4.26,20.28-9,30-1.1,2.26-4.2,5.3-5,8-3.25,11-1.64,22.38-12,26-1.18.8-1.68.77-4,1-12.09-13.27-12.12-25.87-18-45-4.1-13.34-12.52-28.67-18-41q-2.51-9-5-18c-2.91-6.1-6.09-13.75-11-18-1.36-1.18-6-1.61-7-3V668c7.33-8.88,5-44.17,5-61,0-7-1.74-20.66,3-23h12v1c12.36,4.26,12.29,33.23,12,51,4.93,2.41,10.09,3.38,12,9,5.28,8.93,2.58,24.35,13,28,2.67,1.84,7.11.66,10,0,10.55-17.81,14.07-41.34,22-62,5.84-15.21,13.95-33.58,21-48,2-4,1.17-7.89,3-12,.71-1.6,3.38-3.37,4-5,3.3-8.7,3.21-14.3,7-22,33.79-68.62,75.1-133,119-192l7-6c4.75-6.37,8.51-13.39,14-19l14-13c14.76-19.79,31.79-35.8,49-53l24-25c15.94-11.89,29.91-25,46-37l14-14c14.83-10.22,28.87-19,44-29,6.25-4.14,11.83-10.87,18-15,7.73-5.17,16.18-7,24-12l8-8c5.23-3.16,10.92-3.68,16-7,3.36-2.19,6.63-7,10-9,5-3,9.92-3.21,15-6,5.92-3.25,12.43-9.11,19-12l10-2c4.18-2.49,7.28-7.85,12-10C3543.21,49,3561.75,46.53,3571,37Z" fill="none" fill-rule="evenodd"/>
    <path d="M3229,41c1.78,2.33,1.89,1.71-1,3C3228.33,43,3228.67,42,3229,41Z" fill="none" fill-rule="evenodd"/>
    <path d="M2326,604h-35c-2.21.63-4.79,3.36-7,4-7.84,2.27-16.89,1.92-26,2-3.54-10.74-1-29.28-1-42V478c24.34.08,43.82-1.92,69-2a16.24,16.24,0,0,0,5,7V599l-5,2Z" fill="none" fill-rule="evenodd"/>
    <path d="M2848,780c6.37-.63,6.34-3.45,10-6,2.6-1.81,4.91-.56,8-2,6.86-3.2,12.12-10.36,20-12,4.44,7,12.21,12.21,17,19,1.94,2.75,2.05,6.26,4,9,11.58,16.25,24.14,34.07,34,52,16.13,29.33,25.38,64.25,44,91,4.29,6.16,0,14.24,3,23,.54,1.59,3.44,3.42,4,5,3.26,9.26,1.11,16.82,10,20,10.19,5.83,10.32-7.19,13-13,3.81-8.27,10.74-36.2,18-39,1.19-.78,4.81-1.2,6-2,4-6.85-1.41-21.77,2-29,4.4-9.32,10.86-19.15,16-28,2.87-4.93,3.44-14.83,6-19l6-6c1.42-2.71.53-5.51,2-8,9.64-16.35,21.6-32.51,32-48,2.54-3.78,3.32-8.24,6-12,25.78-36.18,55.05-68.06,86-99,8.95-9,16.55-17.36,27-25l15-16c13.46-9.85,26.66-20.43,40-30,4.7-3.37,10.19-4.62,15-8,9.57-6.73,19.62-16.28,30-22,32.45-17.87,65.65-33.92,100-50l11-2c30.74-14.4,68.66-23.47,104-33h11c14.17-3.81,34.14-6.06,49-10h19c37.54-9.86,92.14-2,133-2,3.54,10.74,1,29.28,1,42v89c-3.37,1.16-9.15,1.07-14,1-9.71-7.58-31.94-4.34-46-8-3.79-1-13.21-3-17-4h-23c-16.59-4.22-73.46-4.32-90,0-13.76,3.6-26.08-1.45-39,2-10.1,2.7-25.17,5.38-35,8h-11c-15.34,4.15-31.7,7-48,12-7.21,2.19-16.2,7.79-23,10-9,2.92-17.79,3.1-26,7-26.38,12.55-54.55,23.87-80,38-5.2,2.88-9.67,9.07-15,12-51.13,28.12-90.49,65.49-130,105-23.43,23.43-40.61,48.38-60,76-2.33,3.32-7.55,10.85-11,13-2.91,1.82-9.39-.09-11,3v10c-1.27,2.1-.69,7.92-2,10-4.1,10.91-14,5.09-14,21-3.71,4.22-3.3,12.79-6,18-3.62,7-8.68,16-12,23q-1,5.5-2,11c-1.58,3.38-5.86,8.69-7,12v9c-1.1,3-5.58,5.2-7,8-.33,2.67-.67,5.33-1,8-3.18,9.7-7.63,17.37-14,24l-10-1-4-7v-7c-.57-1.59-3.45-3.41-4-5q-.49-6-1-12c-1.5-3.15-5.87-6.79-7-10q-.49-6-1-12c-4.6-9.22-11.4-21.33-16-31-2.82-5.93-.42-12.36-3-19l-11-10c-3.95-5.58-4.89-14.92-5-24-16.71-9.8-23.95-27.56-35-43-11.89-16.61-26.27-32.22-38-49C2865.32,799.87,2848.87,791,2848,780Z" fill="none" fill-rule="evenodd"/>
    <path d="M3750,1030h9c6.23,10.41,3,43.65,3,60v148c-.8,1-.35.27-1,2-3.52,1.63-4.74,1.81-9,1v11c-3.45,5.56-2,25-2,34v389c-10.52,3.8-29.92,34.82-37,45l-16,15c-28.83,39.62-63.7,74.71-98,109-75.55,75.54-157.57,144.32-245,208-50.36,36.68-99.07,76.95-155,108-4.2,2.33-7.91,7.32-12,10-9.08,5.94-18.08,9.74-27,16l-6,6c-35.08,19.45-67.18,41.36-103,60-11.14,5.8-35.42,28.13-54,23-6.18-1.7-9.34-6.41-14-9-9.86-5.47-19-8.48-29-14-4.27-2.35-8.05-7.45-12-10-4.19-2.7-8.43-2.86-13-5-4.25-2-8-6.8-12-9-3.85-2.12-7.15-1.88-11-4-6.5-3.58-12.72-10.46-19-14-18.35-10.33-37-19.89-54-32l-5-6c-3.1-2.21-6.48-2.06-10-4-8.42-4.64-16.09-12.89-24-18l-7-2c-8.19-4.9-15.19-12.95-23-18l-7-2c-3.79-2.45-7.3-7.39-11-10-4.81-3.39-10.3-4.63-15-8-6.45-4.62-12.68-11.4-19-16-9.35-6.8-19.6-11.27-29-18-13.4-9.6-25.71-22.3-39-32-11.56-8.44-23.5-15.49-35-24-39.55-29.27-74.45-64.54-114-94l-17-18c-9.44-9.43-20.21-18-31-26l-46-47c-17.42-17.42-35.27-33.84-50-54l-14-13c-7.57-7.58-13.58-16.22-20-25l-8-7c-8.88-12.15-17.11-22.78-26-35l-8-7c-4.4-6-5.9-11.58-15-13-.12-5.89-1.86-7-3-10V1166c-3.36-1.42-6.6-2.41-8-6-3-4.89-1-28.1-1-36v-92c0-8-2.07-33.12,1-38,1.77-2.81,8.13-1.21,11-3l5-6c12.08-8.79,23-17.23,35-26,5.2-3.8,9.47-10.43,15-14,43.57-28.12,92.56-50.85,148-67h9c8.53-2.33,21.85-5.59,31-8h17c26.84-6.9,76.89-7.11,104,0h15c12.63,3.36,26.87,4,40,8,2.21.67,4.79,3.35,7,4h9c14.85,4.16,31,12.7,45,18l8,1c58.6,28,122.6,69.17,159,119,5.44,7.45,14.54,13.5,20,21,17.62,24.21,33.38,52.33,48,79,6.06,11,6.78,25.93,14,36,1.87,2.6,5.69,3.79,8,6a64.19,64.19,0,0,0,18-2c7.09-11.38,11.53-23.06,17-37,3.77-9.6,14-23,19-32,6.88-12.46,12-24.6,20-36,47.54-67.57,112.17-115.4,189-154l11-2c17.32-8.11,38.24-15.46,58-21h9c36.13-9.79,105.5-19.39,148-8h19c9.14,2.48,22.47,5.6,31,8h9c2.22.66,4.79,3.28,7,4,17.64,5.75,32.55,7.71,49,14,1.61.61,3.39,3.39,5,4l8,1c51.44,24.64,97.38,55.49,136,93Z" fill="none" fill-rule="evenodd"/>
    <path d="M2627,1032c-7.83,5.59-33.42,4.73-44,8-27.18,8.41-52.71,17.16-77,29-35,17.07-62.89,42.88-89,69-9.25,9.25-20.26,18.4-28,29-5.39,7.39-8.57,15.36-14,23l-6,5c-.67,3-1.33,6-2,9l-6,6c-2.32,4.22-1.78,8.44-4,13-1.82,3.73-6.2,7.49-8,11-4.47,8.74-3.53,18-8,27-.91,1.84-4.22,3.93-5,6-5.65,15-2,48.76-2,68v147c1.93,7.15,5.95,14.33,8,21,1.68,5.45.72,9.3,3,14s7.18,11.22,9,16c.33,2.67.67,5.33,1,8,.93,1.84,4.21,3.93,5,6,.33,2.67.67,5.33,1,8,1.43,2.81,5.87,5,7,8v7c1.16,3.17,5.34,6.2,7,9q2,6,4,12c1.79,3.23,6.21,5.77,8,9,4.79,8.62,7.16,16.28,12,25,3.86,7,11.42,13.5,16,20,13.63,19.35,26.28,38.23,40,57,6.57,9,17.45,16,24,25,12.21,16.69,25.62,30.62,40,45l18,17a156.41,156.41,0,0,0,34,34l16,17c9.29,6.92,16.71,14.08,26,21l10,11c18.7,14,35.29,29.08,54,43l6,7c32.66,23.37,64.24,46.45,97,70,48,34.5,97.14,69.83,151,98,9.59,5,19.42,14.67,29,20,7.16,4,15,5.49,22,10,8.26,5.31,12.71,10.83,27,11,3.82-3.72,7.93-4.21,13-7,11.8-6.49,23.77-13.19,36-20,3.23-1.8,5.78-6.18,9-8,15.92-9,31.23-17.07,47-26,4.12-2.33,6.87-7.7,11-10,15.83-8.83,29.35-17.17,45-26,4.12-2.33,6.88-7.67,11-10,5.52-3.11,10.93-4.38,16-8,50.83-36.23,100.16-74.86,150-112l8-9c14.55-10.85,27.49-22.18,42-33l20-21c18.43-13.74,33.94-29.93,50-46,11.2-11.2,22.49-21,32-34l24-23c3.77-5.15,6.24-9.85,10-15l8-7c6.8-9.3,13.13-17.59,20-27l8-7c45.33-62.2,84.73-128.53,109-212v-11c.54-1.58,3.46-3.42,4-5v-9c1.38-5.13,4.68-12.16,6-17v-97c-4.23-15.62-9.65-34.23-14-49v-9c-7-24.9-20.92-48.5-33-69-1.48-2.51-.63-5.22-2-8a143.82,143.82,0,0,0-12-19c-4.37-6-11.65-11-16-17-22.65-31-57.29-60.1-90-81-2.42-1.55-5.29-.6-8-2-10-5.17-20.57-13-31-18l-11-2c-8.6-4.3-19.82-10.09-30-13-56-16-144-16.72-200,0-9.57,2.85-21.77,10.49-31,14-25.52,9.71-48.46,20.29-69,35-6.06,4.34-11.71,9.4-18,14l-11,12c-16.31,11.93-33.18,27.71-45,44-7.93,10.92-13.29,21.9-20,34-4.11,7.42-11.8,15.31-16,23q-2,6-4,12c-2.71,4.16-8.44,6.57-12,10-8.37,0-20.73,1.48-26-2-10.76-7.11-16.22-29.88-24-41-5.24-7.49-13.85-16-18-24-1.4-2.7-.44-5.59-2-8l-12-11c-9.39-12.87-20.58-24.19-32-35-44-41.67-100.17-66.68-168-85h-11C2696.26,1029.24,2658.72,1032.19,2627,1032Z" fill="none" fill-rule="evenodd"/>
    <path d="M2769,1268h62c9.2,2.26,21.73,5.68,30,8l9,1c7.16,3.36,16,8.83,23,12,3.94,1.78,6.74.9,10,3,2.52,1.63,5.42,5.51,8,7s4.39.55,7,2c9.24,5.11,32.88,25.61,39,34,7,9.58,16.44,18.81,22,29,2.6,4.77,3,9.75,6,14,2.42,3.39,7,5.1,10,8h18c10-3.33,21.4-29.93,28-39l40-40c26.17-18.72,58.11-30.1,94-39h36c43.17,0,77.51,11.06,104,28a238.23,238.23,0,0,1,86,98c.33,2.67.67,5.33,1,8,1.27,4.17,4.89,9.14,6,13v11c5.21,19.47,10.57,63.74,4,88-5.37,19.83-8.5,41.66-17,59-18.36,37.44-42.38,70.67-66,103l-9,8c-1.53,1.75-1.58,4.06-3,6l-22,21c-12.3,16.82-27.33,29.58-44,42l-20,21c-34,25.35-64.78,54-102,76-7.8,4.62-14.93,13.41-23,18-19.32,11-37,23.3-55,35-3.78,2.45-8.22,2.55-12,5-8.1,5.24-18.22,14.2-28,17-12,3.43-18.3-4-24-7-14.19-7.45-25.54-13.7-38-22-11.54-7.69-22.71-13.18-35-20-5.2-2.88-9.85-9-15-12h-3c-11-6.27-20.56-17-31-24-3.89-2.61-8.19-3.28-12-6l-6-7c-3.06-2.26-6.84-2.74-10-5l-12-12c-2.28-1.35-4-.58-6-2-5.71-4.06-10.43-10.85-16-15-58.76-43.76-113-99.37-154-161-5.38-8.09-13.3-16.51-18-25-10-18-17.25-37.18-26-56-.33-2.67-.67-5.33-1-8-.71-2.2-3.36-4.78-4-7v-11c-14.48-54.9-1.93-115.2,19-153l6-6c.67-2.33,1.33-4.67,2-7,15.09-23.4,42.5-47.81,66-63,3.21-2.07,6.23-1.09,10-3,4.61-2.33,8.74-8,14-10l12-2c5.83-2.55,15.45-6.77,22-9C2756.76,1270,2764.48,1271.18,2769,1268Z" fill="none" fill-rule="evenodd"/>
    <path d="M2839,1378c-3.35,2.28-7.61,1.39-12,3-10.59,3.89-21,8.59-32,13-11.2,4.48-44.22,37.51-50,48-2.82,5.13-2.83,11-6,16-2.45,3.88-7.41,10.29-9,15v9c-.63,2.2-3.38,4.79-4,7v57c2.38,8.78,7.43,18.64,10,27,19.19,62.38,81.33,122.55,129,158,9.74,7.24,18.25,17.78,28,25,7.56,5.6,15.77,9.16,24,14,6.35,3.74,11.84,10.92,18,15,11.25,7.45,22,12.12,34,19,10.16,5.83,21.56,22.87,42,17,7.6-2.18,15.83-8.92,22-13,9.21-6.1,18.94-9.75,28-16,6.62-4.56,13.13-12,20-16,41.17-24.17,76.29-55.28,109-88,37.16-37.16,73.69-78.32,90-136v-67c-11.52-40.4-33.78-69-67-88-4.6-2.63-9.91-7.59-15-10l-25-6c-3.36-1.41-9-4.76-16-3-3,.76-7,3.24-10,4h-48c-36.6,9.25-58.71,37.07-82,60h-26c-6.15-2.06-10.71-9.71-15-14-10.79-10.79-22.09-23.58-35-32-3.24-2.12-6.07-1.22-10-3-11.35-5.14-24.34-11.59-38-15Z" fill="none" fill-rule="evenodd"/>
    <path d="M2259,2033c10.88,2.53,16.26,11.27,23,18,5.45,5.45,11.59,8.33,18,13l17,18c31.77,23.28,59,50.63,91,74,6.72,4.91,12.28,13.09,19,18,65.74,48.08,129.6,98.61,196,146,2.74,1.95,6.24,2.07,9,4,4.78,3.36,10.11,8.84,15,12l7,2,7,8c2.74,2,6.25,2.06,9,4,5.67,4,11.33,10,17,14,8.06,5.67,17.2,8.34,25,14a1076.31,1076.31,0,0,0,109,70c3.23,1.8,5.78,6.19,9,8,8.06,4.54,16.1,6.91,24,12,3.95,2.54,7.73,7.65,12,10,23.48,12.91,45.23,25,69,38,7.67,4.2,15.25,11.76,23,16,8.87,4.85,17.38,6.91,26,12,3.24,1.92,6.94,5.83,11,7,21.42,6.15,44.37-14.62,56-21,21.77-11.95,43.14-23.69,65-36,3.22-1.82,5.77-6.2,9-8,15.21-8.46,28.77-17.48,43-26l7-2,6-6c4.75-2.68,8.25-3.32,13-6,6.28-3.54,12.5-10.42,19-14,3.53-1.94,6.88-1.81,10-4,10.92-7.66,22.21-17.52,34-24,10.81-5.94,22.13-7.68,34-13,4.27-1.91,8-6.79,12-9,10.58-5.9,20.4-11,30-18l23-24c6.57-4.79,14.42-7.22,21-12,11.35-8.24,21.57-19.69,33-28,16.78-12.2,34.23-21.8,51-34,5.22-3.8,9.65-10.14,15-14,35.8-25.78,69.46-52.05,105-78,7.44-5.44,13.46-14.61,21-20,2.73-1.95,6.26-2.05,9-4,6.05-4.31,11.06-11.65,17-16,15.7-11.48,29.14-24.41,45-36,9.93-7.25,26.27-29.34,37-33h37a17.82,17.82,0,0,0,3,4v111c-13.5,8.16-29.22,24.25-41,35-4.62,4.21-11.31,5.83-16,10-28.28,25.14-58,48.44-89,71-6.48,4.72-16.25,12.51-21,19-1.64,2.24-1.86,5.35-4,7-14.26,11-29.71,19-46,28-7.86,4.36-14.85,12.8-22,18-14.06,10.23-28.95,17.8-43,28-4.46,3.24-8.45,8.74-13,12-13.39,9.62-27.5,16.36-41,26l-7,8c-16.47,12-34.65,20.1-51,32l-15,16a240.54,240.54,0,0,1-29,18c-4.46,2.3-8.81,1.69-13,4-3.24,1.79-5.78,6.19-9,8-34.4,19.37-64.31,40.95-99,60-6.5,3.57-12.72,10.47-19,14-40.95,23.05-79.44,48-121,70-9.07,4.8-39.8,26.78-56,21l-5-5c-6.11-3.91-12.65-4.24-19-8-3.31-2-6.64-6.15-10-8-10-5.51-19-8.45-29-14l-6-6-12-4c-10.82-6-22.2-16.05-33-22-48.5-26.7-93.63-56.68-139-86l-7-2c-32.36-20.88-62.77-44.74-97-64-3.24-1.82-5.9-5.92-9-8-8.76-5.88-17.57-9.86-26-16l-7-8c-6.83-4.88-14.16-7.13-21-12l-8-8c-16.6-9.38-30.08-21.35-45-32-2.74-1.95-6.25-2.06-9-4-6.53-4.59-13.05-12.08-20-16-2.35-1.33-4-.56-6-2l-9-10c-10.24-7.47-20.47-12.6-31-20-8.88-6.24-16.35-15.7-25-22-17.95-13.08-35.13-24.95-53-38l-9-10c-4.34-3.18-8.66-4.83-13-8l-9-10c-15.61-11.37-29.51-22.69-45-34l-7-8c-4.34-3.17-8.66-4.83-13-8l-11-12-4-1v-49c-2.86-4.51-1-17.45-1-24C2257,2090,2253.86,2042.91,2259,2033Z" fill="none" fill-rule="evenodd"/>
    <path d="M2258,2454c15,1.43,41.55,29.6,53,38,4.34,3.18,8.65,4.83,13,8l8,8c2.69,1.41,5.6.44,8,2,5.25,3.42,9.76,10.24,15,14,17.57,12.62,34.74,25.61,52,38,4.69,3.37,10.23,4.59,15,8,7.07,5.05,13.72,12.87,21,18,4.81,3.39,10.3,4.63,15,8,18.19,13,36.68,27.1,55,40,4.81,3.39,10.3,4.63,15,8,37.49,26.85,75.71,55.26,117,78,11.5,6.33,21.5,17.67,33,24,50.6,27.87,96.09,59.82,147,88,5.2,2.88,9.83,9,15,12,8.57,5,16.46,7.27,25,12,6.31,3.49,12.63,10.32,19,14,19.84,11.46,38.87,21.12,59,32,9.22,5,19.61,13.28,29,18,3.78,1.9,6.79.92,10,3,3.06,2,6.33,6.75,10,8,19.39,6.62,44.11-12.76,54-18,24.2-12.81,48.17-25.09,72-39,10.78-6.29,21.8-15.9,33-22,7.35-4,13.73-5.76,21-10,3.06-1.79,5.82-6.24,9-8,16.27-9,30.7-17,47-26,9.37-5.16,17.69-14.83,27-20,10.67-5.94,20.47-10.07,31-16l6-6c8.85-6.35,18.37-10.58,28-16l6-6,7-2,6-6c3.51-1.95,6.9-1.79,10-4,5.38-3.83,10.08-10.71,16-14,41.05-22.81,77.63-49.68,115-76,10.8-7.61,22.38-12.39,33-20,11.25-8.06,22.43-18.23,34-26,5.82-3.91,12.34-5.95,18-10,6.48-4.64,12.53-11.35,19-16,14.87-10.67,30.07-19.31,45-30,4.54-3.25,8.53-8.81,13-12,2.74-1.95,6.26-2.05,9-4,8.16-5.81,17-16.35,25-22,3.13-2.22,7.64-1.81,11-4l11-12c9.31-6.78,16.54-9.77,29-14,.67-2.08,1.28-6.93,2-9,4.38-2,8.46-1.75,14-1v12c4.11,1.08,4.49,2.64,7,5v111l-1,1h-3v3c-13.55,4.16-26,21.28-38,28a300,300,0,0,0-32,20l-7,8c-6,4.27-13,5.74-19,10l-5,6c-16.73,12.18-34,22.05-51,34-4.56,3.21-8.53,8.81-13,12-15.79,11.28-33.13,18.84-49,30-52.71,37.06-105.36,76-163,108-9.29,5.16-17.76,14.65-27,20-51.34,29.73-98.4,61.47-151,90-5.39,2.93-10,9-15,12-7.07,4.25-13.61,5.93-21,10-3.1,1.71-6.06,6.46-9,8-31.13,16.31-60.69,33.3-91,50-12.36,6.81-37.89,29.52-59,24-5.63-1.47-8.73-5.66-13-8-11.14-6.11-22-9.64-33-16-2.12-1.23-4.73-4.77-7-6-2.61-1.42-4.46-.48-7-2-3.3-2-6-6.36-10-8-4.7-1.93-7.85-1.6-12-4-12.23-7.06-24.58-17.26-37-24-8.72-4.73-16.54-6.95-25-12-3-1.78-5.8-6.24-9-8-59.23-32.71-115.85-68.32-171-105-3.84-2.56-7.81-2.67-12-5-9.2-5.11-17.87-14.93-27-20-7.39-4.11-13.61-5.89-21-10-5.92-3.29-10.62-10.16-16-14-3.1-2.21-6.48-2.06-10-4-8.42-4.64-16.09-12.89-24-18l-7-2c-5.27-3.15-10.13-8.5-15-12-17.24-12.38-35.57-21.75-53-34-11.51-8.09-23.43-17.86-35-26-3.94-2.77-9.06-3.23-13-6-33.84-23.75-67.31-50-101-74-6.84-4.88-14.12-7.16-21-12-11.92-8.38-23-19.53-35-28-2.75-1.94-6.26-2.05-9-4-3.76-2.68-7.05-7.24-11-10l-4-1Z" fill="none" fill-rule="evenodd"/>
    <path d="M2360,3043c-10.73.07-20.61,4.53-30,1-27.85-10.47-50.79-46.66-64-73-1.65-3.29-6.61-8.41-8-12v-50c0-15-3.26-37.15,1-50,10.9,5.38,19.4,15.49,29,22l9,3c8.12,4.36,15.4,12.89,23,18,17.28,11.63,37.29,20.55,53,34,9.8,8.39,18.91,18.1,29,26,4.41,3.45,2,9.73,9,11,2.36-2.52,4.28-3.65,9-4,6.85,5.58,15.56,7.72,23,13,9.07,6.44,19.52,16.35,29,22,4.45,2.65,9.25,2.8,13,6,1.71,1.46,3.07,4.84,5,6,11.67,7,22.75,11.55,34,19,3.36,2.22,6.63,7,10,9,17.26,10.42,34.13,19.37,48,33v18c-12.88,4.24-35,1-50,1H2422c-1.36-.85-4-.05-6-1-5.69-2.66-14.16-7.73-21-10h-5l-3-4c-4.89-2.7-9.79-1.47-15-4-2.88-1.4-7.32-5.37-10-7-5-3.06-12.07-3.11-15-8-1.26-1.36-1.37-1.77-2-4,4.39-3.45,4.49-6,13-6,1,.8.27.35,2,1Z" fill="none" fill-rule="evenodd"/>
    <path d="M3744,2863h4c3,9.14,1,25,1,36v75c-8.2,8-12.2,20.59-19,30-10,13.78-26.42,20.74-39,32-7.45,6.67-8.91,18.82-18,24l-6,1c-4.84,2.73-10.06,8.92-15,12-4.53,2.82-9.91,2.55-15,5l-3,4-10,1-3,4h-6l-4,4-9,1-2,3c-9.53,4-36.6,1-49,1H3435c-1.91-5.64-1.08-15.69-1-23h1c2.26-6.37,10.88-14.56,17-17,3.32-1.33,5.35-.34,8-2,3.49-2.19,6.55-6.71,10-9,6.35-4.22,13.54-6,19-11,2.52-2.3,4-6.12,7-8,2.61-1.65,4.82-.56,8-2,5.32-2.42,12.45-6.67,18-10,8-4.81,16.14-12.83,24-18,3.19-2.1,6.52-2,10-4,5.2-3,9.71-9.09,15-12,4.49-2.47,8.46-2.8,12-6,.91-.82,1.08-3.2,2-4,5.09-4.44,17.84-3.09,22-7,1.16-1.09.86-3.89,2-5,2.55-2.49,7.46-2.51,10-5s3.38-6.66,6-9c2.93-2.62,7.12-3.37,10-6,2.5-2.29,4-6.2,7-8l12-4c19.52-13,38.83-28.36,58-42C3722.43,2876.58,3735.38,2872.15,3744,2863Z" fill="none" fill-rule="evenodd"/>
  </g>
  <g id="iphone-cover-candyhearts-darkpink" style="isolation: isolate">
    <path d="M2491,35h246c6.75,10.37,17.82,17,26,26,7.75,8.47,12.39,19.4,20,28,7.36,8.32,21.61,17.57,23,31-2.46,3.67-1.46,7.18-6,9-6.05,3.77-40,1-50,1H2630c-9.37,0-40.3,2.56-46-1-10.66-3.44-23.2-27.43-34-34-22.1-13.43-47.5-25-70-38-9.6-5.54-26.38-7.48-33-16,4.69.16,13.05,1,16-1-2.08-.37-1.92-.24-3-1h1C2467.41,35,2485.87,40.43,2491,35Z" fill="none" fill-rule="evenodd"/>
    <path d="M2969,35h70a28.89,28.89,0,0,1,1,9c-3.29,4.18-2.49,9.54-5,15-3.23,7-7.05,16-10,23q-1,6-2,12c-2,3.32-6.33,5.29-9,8-5.11.16-14.71,1.17-18-1-15.48-5.3-14.43-33.75-21-49C2972.76,46.81,2967.42,41.56,2969,35Z" fill="none" fill-rule="evenodd"/>
    <path d="M3269,35h274c.92,2.67,1.05,6.93,1,11h-1c-3.06,8.45-9.83,6.75-17,11l-8,8-10,2c-6.56,2.9-13.08,8.75-19,12-5.08,2.79-10,3-15,6-3.37,2-6.64,6.8-10,9-5.07,3.32-10.77,3.85-16,7l-8,8c-7.81,5-16.26,6.83-24,12-6.18,4.12-11.76,10.86-18,15-2.67,1.77-5.15,1.29-8,3-11.07,6.65-21.18,17.72-32,25-3.13,2.1-6.32,2.56-9,5-2.35,2.14-3.63,5.89-6,8-10,8.92-22.13,15-32,24-70.4,64.41-131.83,136.28-186,217-4,5.91-4.4,12.2-8,19-1.69,3.19-6.22,5.95-8,9-1.5,2.58-.58,4.36-2,7-5.87,10.88-13.32,22.72-20,33-4.05,6.23-5.56,13.39-9,20-3.12,6-8.25,11.93-11,18-3.69,8.14-4.07,16.78-8,25-7.3,15.26-14.58,33.39-22,49-.33,2.67-.67,5.33-1,8-.61,1.6-3.39,3.4-4,5-6.29,16.69-6.75,29.26-18,41-7.41.1-16.1.18-22-1-2.61-4.39-6.77-9.32-9-14-4.88-10.23-3.28-26.09-14-30-3.12-2-13.34-1.34-17-2a25,25,0,0,0-4-5V479c0-22.31-2.78-43.2,1-63l3-1c3.4-2.32,12.4-.81,16,0,9.48,21.27,19.53,46.17,25,71a25,25,0,0,1,5,4,68.69,68.69,0,0,0,14-1c10-23.92,16.18-52.79,27-76q1-5.5,2-11c3.28-7.46,8.59-15.94,12-23q1-5.5,2-11c1.28-2.92,4.59-8,6-11,3.37-7.25,2.77-13.91,6-21,4.71-10.32,12.68-20.81,18-31,2.32-4.44,1.77-8.1,4-13,7.09-15.57,17.89-31.75,27-46,2.68-4.2,2.45-9.55,5-14,15.74-27.42,35.9-53.68,54-79,10.42-14.57,18.07-30.95,30-44,2.78-3,7.26-4.93,10-8,9.86-11.06,16-25.08,26-36,1.54-1.68,4.38-2.37,6-4,4-4.06,6.12-9.75,10-14S3265.72,40,3269,35Z" fill="none" fill-rule="evenodd"/>
    <path d="M2260,308c12.78-.21,28.27-.37,38,2,5.65,1.38,13.86-1.64,18,1,6.7,2.16,9.47,8.63,14,13V475l-1,1c-21.26,1.07-46.67,2-70,2-4.33-13.14-1-35.73-1-51V315C2259.52,313.11,2259.79,311.41,2260,308Z" fill="none" fill-rule="evenodd"/>
    <path d="M3748,478c-40.34-.5-95-7.7-132,2h-19c-14.85,4-34.84,6.21-49,10h-11c-17.56,4.77-38.18,10.57-55,16-4.94,1.6-8.16.17-13,2-33.11,12.53-65.84,26.21-96,41-5.77,2.83-10.68,2.84-16,6-61.21,36.34-113.27,72.26-162,121-12.48,12.48-25.42,23.52-36,38l-14,13c-8.52,11.65-17.9,22.5-26,34-19.89,28.26-37.87,58.28-56,88-1.52,2.5.18,5.71-1,9-4.12,11.46-13.42,23.22-19,34-2.39,4.61-1.61,9.88-4,15-3.61,7.72-8.29,17-12,25-2.39,5.13-1.48,10.44-4,15l-9,9c-7.41.1-16.1.18-22-1-7.53-12.76-10-28.72-17-43-14.55-29.6-28.15-61.2-44-90-3.58-6.5-10.41-12.5-14-19-1.94-3.52-1.79-6.9-4-10l-8-8c-1.33-2.35-.57-4-2-6-4.45-6.32-12.32-10-13-20,7.45-5,12.87-12.64,19-19,1.47-1.53,4.7-2.43,6-4,5.36-6.44-.82-15.24,13-18,1,.8.27.35,2,1,1.76,3.64,6.57,13.5,9,17l5,5,3,14c4.06,8.5,11.63,17.25,15,26,7.26,18.83,13.16,35.27,21,53,7.48,16.92,3.08,38.89,31,33,13.94-23.7,19.21-55.12,31-81,1.84-4,6-9,8-13,4.25-8.4,5.37-15.71,9-25s10.94-18.2,16-26c2.06-3.18,1.06-6.3,3-10,3.24-6.16,10.5-12.56,14-19,2.08-3.82,1.78-7.27,4-11,3.44-5.77,10.05-11.47,14-17,7.08-9.91,11.72-20.64,18-31,1.17-1.93,4.53-3.29,6-5,3.4-4,4.93-8.75,8-13,5.51-7.62,13.78-14,20-21,8.92-10,15-22.13,24-32,7.25-7.93,16.38-14.39,24-22,8.28-8.27,15.38-18.11,24-26,2.88-2.64,7.07-3.39,10-6,3.08-2.74,5-7.22,8-10,5.32-4.87,12.6-7.19,18-12,1.66-1.47,2.36-4.5,4-6,3.91-3.56,10-4.47,14-8s6.65-9,11-12c13.7-9.43,27.53-16.39,41-26,6.73-4.8,13.79-11.82,21-16,3.77-2.19,7.16-1.91,11-4,9.31-5.06,19.85-12.7,29-18,15.14-8.76,31.11-14.34,48-21,10.92-4.31,23.23-12.24,34-17l8-1c3.91-1.49,10.08-5.31,14-7l12-2c65.05-24.13,139-40.65,227-41,4,12.09,1,38.29,1,53Z" fill="none" fill-rule="evenodd"/>
    <path d="M3749,989h-4c-6.14-7.61-14.77-12.33-23-18-4.35-3-7.1-8.53-11-12-6.08-5.41-13.8-7.64-21-12-8.25-5-17.48-14.75-26-20-6.32-3.9-13.64-4.32-20-8-19.72-11.4-42.59-22.93-66-31-23.7-8.17-49-11.72-74-18h-18c-16.16-3.92-36.19-4-57-4h-19c-25.49,6.43-55.19,5.38-80,12-91.58,24.44-170.19,73.5-225,135-2.62,2.93-3.37,7.12-6,10-12.72,13.93-25.76,28.62-36,45-5,8-7.21,15.71-12,24-5.62,9.72-14.75,21.4-19,32-6,15-13,29.46-18,44-2.82,8.17-.08,12.22-8,15-1.18.8-1.68.77-4,1-1.32-1.4-3.68-1.65-5-3-4.95-5.09-7.13-23-10-31-5.43-15-10.84-21.75-11-44l-8-1c-13.39-20.89-26.41-43.87-41-64-5.44-7.51-14.56-13.55-20-21-27.48-37.66-68.5-67.45-108-93-7.23-4.68-15.75-5.34-23-10l-6-6-9-2c-7.77-3.78-17.58-9.72-26-13-26.66-10.37-55.07-15.71-84-24-15.86-4.54-35-1.76-50-6h-23c-20.82,0-42.24-.5-58,4h-17c-3.05.84-9.95,3.12-13,4h-9c-40.45,11.45-83.24,22.61-115,43-2.43,1.56-5.24.65-8,2-5.94,2.91-10.79,8.63-16,12-5.45,3.52-12.41,3.79-17,8-5.29,4.86-12.05,7.68-18,12-12.89,9.36-24,22.63-37,32-3.38,2.43-14.41,12.47-19,9-2.88-4.63-1-46.54-1-56V826c1.8-5,7.38-6.14,9-13,2.13-9-1.75-21,0-30,11-2.4,23.45-9.33,33-14,4.69-2.3,8.6-1.24,14-3,3.65-1.19,7.33-4.87,11-6,12.2-3.76,21-4.41,33-8,6.4-1.91,26.25-8.59,32-6,6.53,5.77,17.66,21.36,24,25l10,2,7,8c4.72,1.89,11.21.51,16,2,4.42,1.38,7.46,5.74,11,7h8c1.42.37,4.95,2.69,6,3l26,1c10.49,2.73,27.4,2,41,2h167c8.18,0,33-2.12,38,1,4.08,1.63,5.4,6,9,8,2.63,1.46,4.37.54,7,2,3.21,1.78,5.75,6.3,9,8,2.7,1.41,5.58.45,8,2,4.78,3.06,9,9.18,14,12,28.7,16.13,50.65,37.64,73,60,33,33,63.26,67.73,89,108,4,6.27,4.48,13.57,8,20,12.75,23.29,24.86,49.21,36,75,5.93,13.73-3.21,31.18,13,37,4.77,2.68,10.69-1.25,12-5q-.49-7-1-14c2.31-6.41,7-15.73,9-22,.33-2.67.67-5.33,1-8,9.37-19.74,19.88-40.57,30-59,4.25-7.74,5.18-16.45,10-24,14.51-22.72,32.12-44.27,48-66,9.42-12.9,22.75-23.76,34-35,9.59-9.59,17.82-18.83,29-27l15-16a903.3,903.3,0,0,1,97-62c5.59-3.07,10.95-3,17-6,13.85-6.75,31-13.46,45-20,7-3.29,14-2.58,22-5,2.22-.67,4.79-3.29,7-4,8.15-2.64,14.39-1.42,23-4,2.21-.66,4.79-3.35,7-4h9c5.13-1.41,13.34-4.49,19-6h13c3.39-.88,11.61-3.1,15-4h29c17.34-4.46,54.67-4.57,72,0h29c40.9,11,83.29,14.48,118,31,6.9,3.28,36.6,9.29,39,14V955C3747.23,959.35,3748.89,981.74,3749,989Z" fill="none" fill-rule="evenodd"/>
    <path d="M3756,744l4,1c5.68,38.42,2,87.1,2,129,0,25.49,3.49,56.46-1,80a16.58,16.58,0,0,1-8,2c-4.23-12.86-1-48.64-1-65V747A9.34,9.34,0,0,0,3756,744Z" fill="none" fill-rule="evenodd"/>
    <path d="M2694,1132h74c16.85,4.23,35.07,7.64,50,13l12,2c3.33,1.48,6.52,5.65,10,7l8,1c24.34,10.75,46.24,27.39,65,44,10.31,9.13,24.17,17.63,32,29,10,14.49,19.2,27,28,43,2.46,4.47,7.82,8.23,10,13,4.09,8.94,11.21,35.81,19,39,1.18.8,1.68.77,4,1,1.32-1.4,3.68-1.64,5-3,5.7-5.85,7.82-22.93,12-31,1.18-2.27,4.76-4.75,6-7,2.82-5.12,3.19-9.88,6-15,2.93-5.34,9.07-9.81,12-15,1.33-2.35.56-4,2-6,39-54.6,94.94-88.15,166-111h12c29.18-7.08,94.83-7.67,120,3l10,1c2.67.83,5.73,4,8,5l12,2c3.19,1.18,7.12,4.73,10,6,7.11,3.13,13.76,2.16,20,6l6,6c11.25,6.56,21.71,10.69,32,18l8,8c2.28,1.35,4,.57,6,2l14,15c17.92,17.92,37.39,37,50,60,5.21,9.49,7.13,19,12,29,3.75,7.68,10.43,17.53,13,26,8.37,27.57,12,53.29,12,90v35c-4.1,16.36-7.45,35.27-12,50-.33,3.33-.67,6.67-1,10-13.44,30.7-26.17,62.51-42,91-1.8,3.23-6.18,5.78-8,9-13.79,24.47-29.79,45.82-46,68-6.57,9-17.45,16-24,25-17.21,23.53-38.64,46.59-62,64l-28,29c-46.58,34.74-86.85,77.73-138,108-9.14,5.41-18.11,17-27,22-16.7,9.31-30.5,18.37-47,28-5.74,3.35-10.38,10.32-16,14-7.87,5.16-15.76,7.21-24,12-3.05,1.78-5.81,6.29-9,8l-9,3c-4,2.61-7.94,7.37-12,10-9.71,6.3-20,9.29-30,15-4.09,2.34-9.08,7.43-14,9-10.86,3.47-18.72-4.2-24-7a631.94,631.94,0,0,1-56-34c-5.67-3.8-12.22-5.19-18-9-11-7.25-22.8-14.48-34-22-3.37-2.26-6.51-7-10-9-10.07-5.88-18.71-9.59-28-16-34-23.46-66.74-49.39-100-74-5.64-4.18-10.42-10.84-16-15-16-11.9-30-25.1-46-37l-30-31a241.81,241.81,0,0,1-50-50l-22-21c-4.35-5.94-7.66-11.06-12-17l-10-9c-1.95-2.73-2.05-6.27-4-9l-8-7c-.67-2.33-1.33-4.67-2-7l-8-7c-3.4-4.67-4.62-10.19-8-15-4.57-6.51-12.14-13-16-20-14.62-26.33-26.61-54.45-40-82-4-8.31-4.1-17-7-26-3.94-12.2-8.47-30.07-12-43v-23c-2.84-11.06-2.74-31.91,0-43v-18c1.59-6.36,1.93-14.66,4-22,4.68-16.59,12.36-33.19,18-48,.33-2.67.67-5.33,1-8,2.24-5,7.56-9.94,10-15,.67-3,1.33-6,2-9,3-5.25,8.53-10.14,12-15,3.16-4.43,4.4-10,8-14,1.5-1.64,4.52-2.34,6-4,2.61-2.94,3.37-7.12,6-10,3.45-3.77,8.37-6.38,12-10,6.29-6.28,11.46-14,18-20,13.28-12.15,29.55-21.07,46-30,6-3.27,12.48-9.06,19-12,7.08-3.2,13.81-2.57,21-6a227.26,227.26,0,0,1,35-13C2677,1133.62,2687.44,1136.62,2694,1132Z" fill="none" fill-rule="evenodd"/>
    <path d="M2769,1268c-4.64,3.1-12.19,2-18,4-6.56,2.25-16.16,6.43-22,9l-12,2c-5.26,2-9.39,7.66-14,10-3.76,1.91-6.8.93-10,3-23.5,15.21-50.91,39.59-66,63-9.79,15.19-20.89,39.1-27,57-2,5.93-.3,11-2,18-10.67,44-.88,96.22,13,128,.33,2.67.67,5.33,1,8,2.46,6.42,8.21,12,11,18,25.31,54.51,62.17,95.21,102,135,8.92,8.91,16.61,19.63,26,28,2.93,2.61,7.12,3.37,10,6,4.43,4.06,7.52,10,12,14,2.93,2.62,7.12,3.37,10,6,1.64,1.5,2.34,4.52,4,6,5.4,4.81,12.66,7.16,18,12,19,17.19,39.38,31.24,61,46,8.48,5.79,16.58,14,25,20,4.73,3.38,10.16,4.7,15,8,3,2,5.73,6.2,9,8,12.31,6.79,23.44,12.33,35,20a396.61,396.61,0,0,0,38,22c5.32,2.77,10.9,10.27,22,7,9.8-2.88,19.88-11.72,28-17,3.77-2.45,8.23-2.55,12-5,18-11.72,35.68-24.07,55-35,8.11-4.59,15.3-13.32,23-18h3c8.13-4.64,15.37-12.77,23-18,6.34-4.35,13.33-7,19-12s10.88-11.58,17-16c5.22-3.78,12.15-5.71,17-10,1-.85,1.07-3.09,2-4,4.28-4.18,9.62-8,14-12,2.89-2.63,7.06-3.38,10-6,5.89-5.25,10.18-12.67,16-18,7.43-6.81,16.46-11.28,24-18,3.09-2.76,5.06-7,8-10s7.24-4.91,10-8c2.61-2.93,3.37-7.12,6-10,5.33-5.83,12.75-10.11,18-16,2.62-2.93,3.37-7.12,6-10,1.5-1.64,4.52-2.34,6-4,4.81-5.4,7.14-12.68,12-18,1.5-1.64,4.53-2.34,6-4,6.12-6.92,8.77-17.39,14-25,1.33-1.93,4.49-3.23,6-5,7.48-8.82,10-20.64,16-31,1.22-2.12,4.77-4.73,6-7,7.84-14.46,16.2-36.5,21-53v-11c7.77-29.33,7.61-69.67,0-99v-10c-18.22-62.18-75.54-120.1-136-140-27.36-9-82.48-12.71-114-4-49.14,13.58-85.49,39.83-115,73-9.48,10.65-14.41,24.42-22,37-2.4,4-7.79,6.68-11,10-3.87.15-9.72.54-12-1-10.89-3.67-13.81-16.34-19-26-6.92-12.88-18.83-26.82-29-37-31.05-31.07-68.34-47.72-119-60Z" fill="none" fill-rule="evenodd"/>
    <path d="M3748,1894h-3l-23,22c-14.11,14.11-26.79,28.93-43,41l-18,19a204.31,204.31,0,0,0-23,20l-9,10c-15,11.2-27.91,23-43,34l-17,18c-14,10.23-26.79,19.85-41,30l-13,14c-35.45,25.93-69.38,52-105,78l-7,8c-16,11.64-32.84,20.49-49,32-32.35,23-63.13,48.09-99,68-12.23,6.79-22.87,19.27-35,26-42.41,23.54-82.64,50-123,76-9.44,6.08-19.68,8-29,14-5.33,3.43-11.18,10.31-17,13-12.63,5.84-31.28,12.63-40,22-20.71.52-28.49-9.53-41-17-7.15-4.27-14-5.49-21-10l-6-6c-9.84-5.48-19-8.44-29-14l-6-6c-6.51-4.21-13-5.68-19-10l-6-6c-18.94-9.94-34.69-19.68-53-30-3.22-1.82-5.77-6.2-9-8-5.8-3.22-10.89-4.35-16-8l-6-6c-34.42-19.13-65.63-41.91-97-64-13.56-9.55-27.73-16.34-41-26l-7-8c-13.33-9.72-27.42-16.46-41-26-6.23-4.38-11-11.62-17-16-10.12-7.41-20.71-12.65-31-20l-7-8c-3.53-2.57-7.47-3.43-11-6l-7-8c-36.24-26.52-68.88-55.62-105-82-9.33-6.82-16.65-18-26-25-55.45-41.34-101.06-94-151-141V1693c3.37-1.16,9.15-1.07,14-1v1c10.36,3.55,12.45,14.63,19,22,2.11,2.37,5.86,3.66,8,6,8.39,9.17,13.77,20.7,22,30,.82.93,3.17,1.08,4,2,2.84,3.13,5.31,6.92,8,10s3.38,7.06,6,10c7.75,8.7,18.13,15.4,26,24,2.63,2.87,3.38,7.09,6,10,12.52,13.89,28.67,26.67,42,40,10.9,10.9,20.5,23.76,32,34,118,105.16,241.53,206.55,381,290l8,8c10.46,7.06,20.8,11.34,32,18l3,4c6.05,4.29,12.47,6.08,19,10,3,1.79,5.82,6.2,9,8,15.12,8.55,30.14,14.81,45,24,4.35,2.69,8.45,7.54,13,10,10.06,5.44,19.28,8.26,29,14,4.62,2.73,7.53,7.36,14,9,17.3,4.38,44.82-19.08,56-25,24.83-13.15,48.61-28.19,73-42,5.27-3,9.79-9,15-12,9.91-5.74,18.76-8.88,28-15s18.6-15.4,28-21c48.08-28.66,92.2-59.83,137-92,7.26-5.21,13.82-12.8,21-18,6.9-5,14.55-8.48,21-14,1.71-1.47,3.07-4.83,5-6,19.22-11.65,34.9-25.39,51-40,5.36-4.86,12.49-7.27,18-12,10.32-8.86,20-18.85,30-28s22-15.06,32-24c5.89-5.25,10.18-12.67,16-18,2.88-2.64,7.07-3.39,10-6,4.48-4,7.57-9.94,12-14,2.88-2.64,7.07-3.39,10-6,3.8-3.38,6.39-8.39,10-12,8.33-8.34,17.67-15.67,26-24,39-39,75.34-80.79,112-122,9.37-10.53,26.8-43.92,39-48Z" fill="none" fill-rule="evenodd"/>
    <path d="M2260,2180c6.19,2.15,8.26,8.53,13,12,12.05,8.83,23,17.22,35,26l7,8c15.4,11.28,29.56,22.72,45,34l9,10c17.86,13.07,35,24.93,53,38,6,4.34,11,11.62,17,16,125.27,91.43,251.48,179.6,387,261l6,6c6.71,4.22,13,5.94,20,10,4.71,2.72,9.44,8,14,11,5,3.32,10.61,3.89,16,7,4.71,2.72,9.42,8,14,11,3.19,2.06,6.29,1.06,10,3,2.94,1.53,5.9,6.3,9,8,10.08,5.52,19.07,8.3,29,14,8.4,4.83,17.93,11.79,26,17,3.22,2.08,6.21,1.11,10,3,4.91,2.45,10.69,9.19,16,11,17,5.78,44.42-15.89,54-21,41.53-22.15,80.15-46.87,121-70,6.38-3.61,12.58-10.29,19-14,3.77-2.18,7.18-1.89,11-4,5.29-2.91,9.8-9,15-12,25.23-14.61,47.57-29.61,73-44,8.12-4.59,15.14-13.25,23-18,8.6-5.19,16.44-9.11,25-14,3.25-1.86,6-6,9-8,11.24-7.7,22.68-13.42,34-21,3.34-2.23,6.63-7,10-9,4.08-2.43,8.18-2.47,12-5,5-3.34,9-9.95,14-13,14.14-8.59,27.68-16.44,41-26,4.53-3.25,8.45-8.87,13-12,8.08-5.57,15.92-9.58,24-15,3.34-2.24,6.63-7,10-9,3.2-1.93,6.32-1.71,9-4,8.95-7.64,21.19-20.08,31-26,7.9-4.76,16.26-8,23-14,2.41-2.13,4.22-6.31,7-8,3.17-1.92,6.37-1.69,9-4,28.36-25,60.16-46.57,88-72,5.32-4.86,12.6-7.19,18-12,3.19-2.84,5.43-7.54,9-10s7.8-3.16,11-6,5.47-7.45,9-10c4.21-3.05,9.14-4.57,13-8,5.57-4.95,8.95-11.34,17-14v142c-9.93,2.65-15.7,11.66-23,17-13.24,9.67-25.73,18.34-39,28l-9,10c-2.73,2-6.25,2.06-9,4-3.75,2.64-7.27,7.32-11,10-3.55,2.55-7.47,3.43-11,6l-11,12c-23.74,17.32-47.43,32.71-71,50-5.19,3.81-7.17,10.73-11,16-7,9.61-18.61,15.69-27,24l-43,44-20,2c-2.27,1.13-4.77,4.77-7,6-16.8,9.24-33.14,18.62-49,28l-14,4c-8.59,4.11-19.11,7.09-28,12-13.18,7.29-24.95,20.18-38,28-44.54,26.67-86.12,54.55-132,80l-6,6-7,2c-4.86,3.13-10.14,8.86-15,12l-7,2c-6.19,4-13.4,10.37-20,14-5.12,2.81-9.89,3.17-15,6-6.25,3.46-12.75,10.54-19,14-3.84,2.13-7.15,1.89-11,4-15.84,8.68-29.67,19.21-47,27-12.24,5.51-30.62,26.54-53,20-6.65-1.94-11.89-7.73-17-11-7.43-4.75-15.57-5.56-23-10-4.22-2.52-7.78-7.66-12-10-5.11-2.83-9.88-3.19-15-6-6.6-3.63-13.8-10-20-14-5-3.19-10.9-3.17-16-6-3.24-1.8-5.91-5.92-9-8-6.54-4.39-13.8-6-21-10l-6-6-7-2c-6.35-3.8-12.9-10.05-19-14l-7-2c-5.05-3.26-10.59-9-16-12-3.84-2.11-7.17-1.87-11-4-5.2-2.89-9.67-9.07-15-12-19.08-10.51-35.86-21.46-55-32-8.34-4.59-16-12.85-24-18-12.79-8.27-24.71-14.52-38-22-9.19-5.17-17.88-14.85-27-20-34.41-19.43-65.66-43.5-97-66-8.64-6.2-18.23-9.75-27-16l-5-6c-6.83-4.88-14.17-7.12-21-12l-9-10c-8.78-6.29-18.17-9.69-27-16l-7-8c-4.77-3.41-10.33-4.61-15-8l-7-8c-10.22-7.45-20.61-12.6-31-20-16.09-11.46-30.82-26.35-47-38-9.74-7-19.38-13-29-20-8.58-6.27-16.34-15.7-25-22-3.53-2.57-7.47-3.43-11-6-5.21-3.79-9.72-10.05-15-14-1.1-.82-4.33-1-5-2V2185C2259.88,2183.71,2259.89,2182.53,2260,2180Z" fill="none" fill-rule="evenodd"/>
    <path d="M2770,3093c.33-2,.67-4,1-6,3.87.15,9.72.54,12-1,1.54-2.31,1.12-8.11,1-12-.8-1-.35-.27-1-2-13.21-4.24-17.44-12.25-28-18-7.42-4-13.93-5.74-21-10-3-1.79-5.8-6.23-9-8-2.61-1.44-4.43-.51-7-2-4.17-2.42-7.92-7.44-12-10-13.27-8.32-26.8-13.8-40-22-5.21-3.24-9.67-9-15-12-36.31-20.58-69.09-42.84-105-64-7.9-4.65-14.9-13.51-23-18-3.81-2.11-7.24-1.81-11-4-7.93-4.62-14.94-13.41-23-18-37.64-21.44-72.28-47.54-107-72-22-15.49-45.21-28.15-67-44-6.26-4.55-12.52-11.35-19-16-10.69-7.66-21.81-14.38-32-22-1.1-.82-4.33-1-5-2V2601c1.05-1.55,1-4.09,1-7h2c10.17,12.54,28.85,20.42,42,30,4.45,3.25,8.43,8.78,13,12,32.34,22.79,65,43.05,97,66,8.37,6,16.54,14.05,25,20,3.12,2.19,6.48,2.05,10,4l6,6c4.7,3.37,10.19,4.62,15,8,5.67,4,11.34,10,17,14,8.85,6.23,18.1,9.74,27,16,13.46,9.46,26.83,21.51,41,30l7,2c7.91,5.1,15.58,13.36,24,18,3.52,1.94,6.89,1.8,10,4,5.39,3.82,10.21,10.62,16,14,7.26,4.24,13.69,5.94,21,10,9.21,5.11,17.9,14.69,27,20,28.5,16.64,54.42,33.82,83,50,3.18,1.8,6,6.23,9,8,3.73,2.22,7.18,1.92,11,4,5.39,2.92,10,9,15,12,14,8.34,28.31,13.45,42,22,30.52,19.05,62.66,39.94,94,58,5.05,2.91,11,2.93,16,6l6,6c7.57,4.49,14.61,6.59,22,11,10.95,6.53,35.07,27.14,56,21,6.64-1.95,12.61-7.88,18-11,6.65-3.85,13.6-4.91,20-9,3.73-2.39,8.24-6.83,12-9,5-2.91,9.9-3.19,15-6,3.2-1.76,6-6.22,9-8,8.75-5.22,19.48-7.49,28-13,2.52-1.63,5.42-5.5,8-7,7.35-4.26,13.46-6,21-10,3.21-1.72,6-6.23,9-8,7.1-4.23,14-6.05,21-10,5.27-3,9.79-9,15-12,9.88-5.72,19.05-8.68,29-14,3.22-1.72,6-6.21,9-8,12.52-7.54,24.24-14.35,36-22,3.77-2.45,8.23-2.55,12-5,6.69-4.34,13.22-10.78,20-15,9.28-5.77,18.83-8.93,28-15,48.38-32,98.34-64.31,146-97,6.8-4.66,14.28-7.21,21-12s14.08-11.82,21-16c3.2-1.93,6.32-1.71,9-4,9.1-7.77,18-12.88,28-20l3-4c10.07-6.06,22.35-10.61,31-18,26.27-22.43,55.87-40.32,85-60l10-10a325.17,325.17,0,0,1,29-18c4.13-2.28,7.15-7.67,11-10,6.85-4.15,13.22-6.86,19-12,4-3.55,4.81-7.2,11-9v379c-4.35,4.53-5.48,10.46-9,16-6.51,10.24-14.6,20.07-22,30-6.58,8.82-21.16,21.09-31,27l-13,13c-3.85,2.48-7.59,2.53-11,5l-3,4-6,1-3,4h-5l-3,4h-5l-3,4-10,1-3,4h-6l-4,4h-7l-4,4-22,1H3105c-1.69-.71-2.62-4.1-4-5-3.07-2-12.79-2.28-16-3-17.26-3.87-38.94,2.44-55-1l-36,1c-22.84,0-55.61-3.6-76,1l-15,1-6,6h-38C2827.74,3095,2801.86,3093,2770,3093Z" fill="none" fill-rule="evenodd"/>
  </g>
</svg>
