<svg xmlns="http://www.w3.org/2000/svg" viewBox="0 0 6000 3137">
  <g id="cover-powerpuff-skin" style="isolation: isolate">
    <path d="M3358,2061c.14-3.38.49-5.16,2-7,.22,4.86,2.05,9.68,1,12-3.51,11-13.12,20.88-20,29-2.17,2.56-2.12,6.08-4,9-2.41,3.73-7.12,5.76-10,9-4.17,4.69-5.78,11.39-10,16-4.72,5.16-11,9.05-16,14s-8.84,11.28-14,16c-2.88,2.63-7.06,3.39-10,6-4.47,4-7.5,10.06-12,14-3.62,3.17-10.37,2.84-14,6-.92.8-1.09,3.18-2,4-2.92,2.65-6.95,3.43-10,6v2c-3.39,2.84-8.63,3.14-12,6-4.35,3.69-9.76,9.41-15,12l-10,2-8,8-9,2c-3.28,1.68-5.9,6.19-9,8l-11,2c-8.62,4.23-20,11.89-29,15l-10,1c-12.29,4.38-27.25,10.87-40,15-7.95,2.57-14.15,0-22,2-6.69,1.73-16.08,6.1-22,8h-16c-3,.75-7,3.23-10,4h-18c-18.55,4.44-81.56,4.67-100,0-8.86-2.25-18.37-2.11-26-4h-14c-7.9-2-17.34-5.79-26-8-8-2-14.93,0-22-3-4.25-1.82-11.5-5.59-16-7h-6c-3.27-1.14-6.55-5-10-6h-8a99,99,0,0,1-14-5c-5.83-2.94-13.18-9-19-12-8.11-4.2-16.91-3.75-25-8l-8-8c-2.55-1.61-5-.47-8-2-7.09-3.61-15-10.91-21-16-3.63-3.08-8.94-3.28-13-6-7.17-4.81-14.41-12.34-21-18-3-2.58-7.1-3.35-10-6-6.55-6-11.72-13.71-18-20-6.95-6.95-15.38-12.76-22-20-2.64-2.88-3.39-7.06-6-10-3.35-3.77-8.67-6.22-12-10-6.39-7.26-7.82-18.64-14-26-10.28-12.24-24.23-32-25-53,13.28-.15,13.43,5,21,9l9,2,8,8c2.64,1.66,4.68.67,8,2,4.22,1.69,7.78,6.33,12,8,3.77,1.49,6.41.2,10,2,1.76.88,3.76,4.24,6,5h8c4.66,1.66,8.91,7.15,14,9l12,1c4.62,1.21,9.85,4.81,14,6,8.82,2.52,15.59-.12,24,2,9.73,2.45,20,5.56,30,8h64c11.81-3.33,23.35-9.88,38-10-.38-4.38-1.29-4.11-2-8,8-3.87,16.92-5.44,26-9,4.22-1.66,7.78-6.34,12-8,5-2,9.74-1.42,14-4,6.44-3.9,11.59-9.24,17-14,5.1-4.48,13-5.52,18-10,5.9-5.25,10.4-12.4,16-18s12.76-10.1,18-16c5.64-6.34,7.11-15.85,12-23,2.57-3.76,7.87-6.78,10-11l3-15c2.14-5.69,8.23-10,10-16v-8c1.24-4.66,4.78-9.16,6-14v-12c.82-3.25,2.72-7.6,4-11,3.41-1.76,9.43-3.12,11-7,3.85-6.09,1-24.52,1-33,0-23.74,1.61-49.89-4-69-.7-2.37-3.29-5.35-4-8-.33-3.67-.67-7.33-1-11-.93-1.91-4.27-4.74-5-7v-12c-.85-2.47-5.6-5.47-6-8-.29-1.86.81-1.47,1-2,1.12-2.87.17-1.84,3-3,5-3,17,1.08,22-2,8-2.9,13.58-12.75,16-21q.49-6,1-12c.85-1.75,4.23-3.78,5-6,.33-3.33.67-6.67,1-10,2.43-5,7.28-9.4,9-16v-8c.53-2,10.32-29.21,11-30,1.12-1.3,2.75-.7,5-1l9,9c3.91,6.06,5.39,13.57,10,19,2.88,3.4,7.94,6.91,10,11,4.44,8.82,5.9,18.08,12,25,2.18,2.48,6.11,4.24,8,7,2.91,4.25,3.13,9.46,6,14,2.45,3.89,13.89,15,18,17l11,1c2.64.69,5.64,3.34,8,4,7.71,2.16,19.29-.22,26,1,3.59,8.45-1.71,10.46-4,17-1.82,5.2-.44,8.14-3,12-1.7,2.57-5.89,4.79-7,8v10c-.94,2.72-5.06,5.28-6,8-2.66,7.67.07,13.83-2,22-1.54,6-6.41,11.1-8,16-1.71,5.26-1,15.74-2,20v25c0,18.17-2.39,39.77,2,55,1.35,4.69,5.32,11.22,7,16q1,6.49,2,13c1.26,2.6,4.91,6.06,6,9,.33,3.33.67,6.67,1,10,1.49,4.09,6.71,6.66,9,10,4.49,6.55,6.76,15.08,12,21,3.36,3.8,8.4,6.4,12,10s6.2,8.65,10,12c3.3,2.9,8.63,3.17,12,6a177.84,177.84,0,0,0,34,22c8.24,4,16.21,3,24,7,2.37,1.23,3.16,4.32,5,6,2,1.85,9.41,4.39,12,6-.33-1-.67-2-1-3h8c1-.62,20-1.79,23-2l2,5h2C3312.7,2065,3348,2061.72,3358,2061Z" fill="none" fill-rule="evenodd"/>
    <path d="M3363,2051c2.9-.06,5.47-.05,7,1C3367.1,2052.06,3364.53,2052.05,3363,2051Z" fill="none" fill-rule="evenodd"/>
    <path d="M3026,2086c-4.47,3.21-11,3.42-15,7-4.23,3.76-6.16,9.8-10,14-3.48,3.81-9.34,6.46-12,11-1.36,2.32.11,5-1,8-1,2.72-5.05,5.27-6,8-2.76,7.95-.71,13.23-5,20-4.51,7.11-15.73,10-17,20,2.34,2.36,10.88,17,12,20,1.82,4.93.11,7.69,3,11,4.8,5.5,17.87,17.45,25,20l16,1c21.07,0,31.47-4.08,41-15,2.87-3.29,1.31-6,3-11,.55-1.64,3.48-4.35,4-6v-34c1.17-4.66,4.8-9.17,6-14,1.42-5.74.83-33.32-1-37-2.49-5-17-19.54-22-22C3042.29,2084.69,3032.4,2085.91,3026,2086Z" fill="none" fill-rule="evenodd"/>
    <path d="M2862,2298c18-.19,35.32.44,50,4,8,1.95,19.07-.37,26,1,2.57,5.83,5.39,11.59,6,19-16.86,16.37-31,13.21-63,13-.67-3-1.33-6-2-9-12-5.4-14.62-9.76-23-18C2856.42,2301.61,2858.82,2301.26,2862,2298Z" fill="none" fill-rule="evenodd"/>
    <path d="M3288,2350a56.45,56.45,0,0,1,12,1c.33,1,.67,2,1,3,2,3.06,1,10.36,0,14-3.81,13.28-9.89,26.92-14,40-2.91,9.25-5,20.17-10,28-1.7,2.68-5.82,4.84-7,8-.33,3.33-.67,6.67-1,10-2.12,5.49-7.93,9.39-11,14-4.42,6.64-6.54,13.53-11,20-7.27,10.54-18.94,19.95-28,29-6.58,6.57-23.18,26.88-33,28-6.3,4-45.47.37-50-2l-8-8c-6.57-4.13-15.57-3.91-22-8-3.74-2.38-5.76-7.14-9-10s-8.72-3.1-12-6c-2.51-2.22-5.49-7.79-8-10-3.28-2.89-8.72-3.11-12-6-2.36-2.09-3.64-5.9-6-8-8.45-7.53-29.85-19.78-31-33,6.71-9,25.41-46.68,20-66-.66-2.36-3.32-5.35-4-8-1.79-7,.59-16.18,1-22l7-6c1.75.63,1,.19,2,1,12.23,4.05,20.6,17.6,29,26,16.28,16.28,35.11,30.37,51,47,22,.15,30.07-14.07,41-25,12.64-12.64,26.7-24.05,39-37C3240.2,2364.57,3273.36,2361,3288,2350Z" fill="none" fill-rule="evenodd"/>
    <path d="M2708,2356c20.19,0,39.59,29.58,51,41,5.58,5.58,14.09,8.81,15,19-12.4,12-19.85,28.78-29,44-4.59,7.64-13.77,14.9-18,23-2.38,4.56-5.83,20.77-2,27,2.28,6.48,18.69,20.48,25,23,4.57,1.82,7.69,1.24,11,4,12.36,10.33,26.93,14.82,43,22,5.62,2.51,10.72,9.06,16,11,9.63,3.53,18,2.29,26,7,2.78,1.65,4.6,5.88,7,8,2.95,2.61,7.12,3.36,10,6,6.89,6.31,12.31,14.46,19,21,.15,3.87.54,9.72-1,12-6.17,19-45.09,20-72,20-28.2,0-54.1,0-75-6l-16-1c-11.08-3.92-23.27-9.95-34-14-9.72-3.67-23.2-5.4-32-10-2.76-1.45-4.68-6-7-8-2.63-2.31-5.83-2.07-9-4-3.59-2.18-6.05-7.05-9-10-10.1-10.09-23.41-19.67-30-33-10.93-22.11,2-56.16,8-72,2.55-6.69,2.58-13.45,6-20l8-8c1.59-2.53.44-5,2-8,1-1.9,4.61-3.36,6-5,2.84-3.36,3.1-8.7,6-12,1.45-1.65,4.55-2.35,6-4,2.89-3.29,3.1-8.72,6-12,2.08-2.36,5.9-3.64,8-6,2.61-2.94,3.37-7.12,6-10,4.09-4.46,9.71-7.71,14-12C2684.69,2377.31,2694.46,2366.07,2708,2356Z" fill="none" fill-rule="evenodd"/>
    <path d="M2800,2746c-.15-19.26,8-22.17,14-34l3-10c3-4.78,8.39-8.77,12-13,3.13-3.67,3.31-8.77,6-13,3.32-5.22,9.67-8.68,14-13,1.61-1.6,2.31-4.52,4-6,5.31-4.67,13.29-4.56,20-8,8.7-4.46,14.26-12.57,21-19v-24c-2.2-6.35-7.55-6.16-8-16,7.6-6.45,17.2-2.88,28-6,2.37-.68,5.35-3.3,8-4,11.6-3.05,23.45-2,34-5,5.24-1.48,16.05-5.64,22-2,9.3,3.13,12.55,17.54,19,24,15.3,15.31,29.45,32,46,46,8.55,7.26,27.69,13.33,29,27-5.69,3.57-11.12,9.61-18,12l-10,1c-3,1.11-6.58,4.07-10,5l-12,1c-5.65,2.08-12.51,7.08-18,9h-6c-4.17,1.32-9.35,4.76-14,6h-8c-16.19,4.85-35.58,11.44-52,16-9.39,2.61-17.5,3.86-26,6h-12c-2.23.75-4.26,4.15-6,5l-12,1c-3,.8-7,3.21-10,4h-10l-16,6h-18C2809.4,2743.18,2806,2745.49,2800,2746Z" fill="none" fill-rule="evenodd"/>
  </g>
</svg>
