<svg xmlns="http://www.w3.org/2000/svg" viewBox="0 0 6000 3137">
  <g class="g_to_interact_with" id="cover-powerpuff-eyeshadow" style="isolation: isolate">
    <path d="M2914,1728c12.48-.28,40.58-3.55,46,4,7.32,10.42,14.51,53.46,11,72l-3,1c-3.52,2.26-20.39,2.1-24,0-3.39-2-6-6.45-10-8l-16-1c-2.26-.75-5.08-4.06-7-5l-21-3c-7-2-12.31-5.74-22-6a148.38,148.38,0,0,1-28-4h-90c-11.45,2.85-28.25,3.06-40,6h-14c-30.58,9.88-79.2,7-119,7-3.19-12.54-7.6-5.46-17-10-2-1-4.84-4.89-7-6l-9-2c-3.11-1.62-5.47-6.57-8-9,.42-6.4,2.83-6.74,6-10,28.86.27,60.2,1.77,84-4h34c1.64-.52,4.36-3.48,6-4h25c16,0,29.21-1.13,41-4h30c15.64-3.83,38-2.11,54-6h16c12.49-3.06,31.33-5.17,45-6C2887.82,1729.34,2906.84,1733,2914,1728Z" fill-rule="evenodd"/>
    <path d="M3154,1796a85.88,85.88,0,0,1,24-62c37.65-.56,69.83,3,98,12h34c4.22,1,10.17,3,14,4,16.18,4,43.22.3,56,7,3.09,1.62,5.5,6.55,8,9,0,7.84-2.36,8.27-6,12h-34c-1.63-.51-4.37-3.49-6-4l-85,1h-52l-5,5h-6c-2.11.78-4.19,3.89-6,5C3181,1789.29,3163.9,1795.82,3154,1796Z" fill-rule="evenodd"/>
  </g>
  <g class="g_to_interact_with" id="cover-powerpuff-hair" style="isolation: isolate">
    <path d="M3394,1760c-8.7-.18-11.35-4.3-18-6h-20c-4.85-1.2-15.15-2.81-20-4h-22c-1.64-.53-4.36-3.47-6-4h-32c-17.65-5.69-40.76-7.29-60-12h-28c-3.48-1.12-4.73-3.45-10-4-2.17,2.46-7.35,6.21-10,5-3.4-1.12-5.22-4.06-8-5h-26c-2.66-.67-5.63-3.32-8-4l-12-1c-1.06-.53-13.66-12.47-15-14-3.53-4-4-10.47-7-15-3.33-5-10-9-13-14-3.8-6.31-4.43-12.09-8-19-2.85-5.51-8.77-10-12-15-5.61-8.77-8.36-23.55-21-25-.33,1-.67,2-1,3-2.81,4.18-9.55,23-11,28q-.49,6-1,12c-1.76,4.89-6,8.9-8,13-.33,3-.67,6-1,9-.79,2.26-4.06,5.07-5,7q-1,7.5-2,15c-3,7-8.07,11-13,16h-26c-3.05,1-4.9,4.88-10,4-13.27-2.29-36.72-3.22-50,0-12.54,3-29.73-.49-40,2h-18c-11.46,2.8-28.23,3.15-40,6h-24c-21,5.13-51.66,3.06-72,8h-50c-1.64.52-4.36,3.48-6,4h-34c-11.68,2.84-27.41,4-41,4-14.51,0-32.21-1.49-45,1-1.49,2.47-3.09,6.46-5,9v-2c-1.82-3.44,1.79-6.18,3-10-3.55-1.27-6.64-4-9-5-3.73-1.59-9.17.83-12-1l7-1c19.77-41,48.57-73.6,79-104,4.29-4.29,7.54-9.91,12-14,2.88-2.64,7.06-3.39,10-6,5.89-5.25,10.17-12.67,16-18,11.7-10.69,27.42-17.29,41-26l8-8h4a184.2,184.2,0,0,0,17-8c3.27-1.74,5.9-6.14,9-8,3.6-2.16,7.79-1.77,11-4l3-4,10-1c2.23-.79,4.24-4.12,6-5,5-2.52,10.17-1.5,15-4,2.17-1.12,5-5,7-6l15-2c4.84-2.19,10.51-7.42,15-9,8.94-3.15,18.24,1.22,28-2,4.2-1.39,7.64-6.58,12-8h12c8.83-2.17,20.14-6,28-8h24c23.94-5.76,74.94-7.39,98,0h14c8.23,0,16.42.63,22,2h20c4,1.09,6.55,4.79,10,6,8.95,3.13,18.79.94,28,4,1.65.55,4.35,3.46,6,4l14,1c13.15,4.68,27.34,11.19,40,16,7.25,2.75,13.21,2.56,20,6,4.31,2.18,8.57,7.71,13,10,4.82,2.5,10,1.47,15,4,6.6,3.32,13.79,10.37,20,14l10,2c3,1.76,4.48,5.78,7,8,5.77,5.08,15.65,8.13,23,12,4.41,2.33,7.33,8.73,11,12,6.83,6.08,15.27,9.84,22,16,7.93,7.26,14.39,16.39,22,24,4.92,4.93,11.41,8.79,16,14,2.89,3.28,3.11,8.72,6,12,3.33,3.78,8.67,6.22,12,10,3.83,4.35,4.18,11.66,8,16s9.12,8,12,13q2,6,4,12C3386.18,1731.27,3393.94,1738,3394,1760Z" fill-rule="evenodd"/>
    <path d="M3134,2256c-.11,8.7-5.25,18.43-2,28,.71,2.09,3.91,4.22,5,6,1.41,2.32.63,4.43,2,7,1.21,2.27,4.41,4.1,6,6,3.74,4.47,4.15,11.66,8,16,3.36,3.8,8.4,6.4,12,10,2.94,2.94,4.9,7.27,8,10,8.74,7.68,34,8.2,38,19,1,1.42,1,3.27,1,6-4,4-7,9-11,13-9,9-19,17-28,26-5,5-9.13,12.08-15,16-4.35,2.91-17.08,10.3-24,6-8.92-3-24.19-21.18-31-28-7.66-7.67-16.33-14.34-24-22-3.61-3.61-6.21-8.62-10-12-2.91-2.59-7.26-3.28-10-6-2-1.95-2.61-5.48-5-7l-7-1c-2.85-1.5-2.21-5.31-4-8l-13-13c-6-3.87-13.13-2.74-20-6-6.19-2.94-12.79-8.93-20-11-13.63-3.92-42.53,6.05-46,4-3.19-3.35-3.39-10.08-8-12-5.51-3.41-16.76.73-24-1-11.21-2.69-25.79-1.07-38-4-2.59-.62-7.35-3.57-12-2-7.36,2.48-6.87,9.55-18,10,2.47-7.53-3.86-14.78-8-19-14.84-.12-31.95-1.68-44,2-5.15,1.57-7.16,6.51-11,9-5.56,3.6-13.41,4.4-19,8-7.14,4.6-12.13,13.51-19,18-4.34,2.84-9,3.1-13,6l-15,16c-1.58,1.16-3.52.76-5,2-3,2.51-3,8.55-6,11-12.29,9.94-21.95,20.95-33,32-3.61,3.61-8.62,6.2-12,10-2.61,2.94-3.37,7.12-6,10-2.93,3.21-7.59,5.26-10,9-1.87,2.89-1.8,6.5-4,9-1.45,1.65-4.55,2.35-6,4-2.2,2.5-2.14,6.1-4,9l-6,6c-5.92,8.86-6.82,20.42-21,21-1.18-.8-1.68-.77-4-1,.09-3.09.14-6.33-1-8-3-9-13.79-14.8-20-21-14.25-14.24-28.45-29.11-42-44-3.29-3.61-3.24-8.64-6-13-1.87-3-5.76-4.45-8-7-2.89-3.29-3.11-8.72-6-12-2.09-2.37-5.86-3.66-8-6-12.13-13.27-18.83-31.64-29-47-1.66-2.51-5.09-4.72-7-7-2.47-2.95-2-6.33-4-10-4.23-7.89-13.18-17.32-18-25-2.41-3.84-1.83-8.81-4-13-3.22-6.22-11-11.18-14-17-.33-3.33-.67-6.67-1-10-2.93-8.27-12.55-20.29-17-28-.67-3.33-1.33-6.67-2-10-1.49-4-5.64-8.12-7-12v-6c-1.41-3.76-6.6-6.24-8-10-.33-3-.67-6-1-9-8.94-18.28-21.37-42.25-16-71a15.61,15.61,0,0,1,5-1c4.61,6.23,11.56,10.56,17,16,11.56,11.56,21.8,25.14,34,36,6.17,5.5,13.31,9.1,19,15a56.45,56.45,0,0,0,12-1c2.27-5.42,3.84-15.17,4-22v-15c.53-1.64,3.48-4.36,4-6,3.49-11-1.48-25.14,2-36,.53-1.64,3.48-4.36,4-6v-12c.53-1.64,3.48-4.36,4-6v-24c.69-2.65,3.32-5.64,4-8,1.09-3.8.42-9.09,1-12a25,25,0,0,0,5-4c4.28-.15,11.39-.74,14,1,6.24,2,24.21,20.44,26,27-5.26.33-5.3,1.56-8,4,1.93,7.49,7.74,10.38,11,16q1,6.49,2,13c1.09,2.21,4.95,4.94,6,7,3.87,7.61,6.88,17,12,23,1.45,1.71,4.83,3.07,6,5,3.86,6.39,5.12,15.46,10,21,3.34,3.79,8.58,6.27,12,10,2.64,2.88,3.39,7.07,6,10,5.88,6.6,13.74,11.74,20,18,6.93,6.92,12.7,15.5,20,22,6.37,5.68,13.86,9.09,21,14,4.16,2.86,7.69,8.17,12,11,3.5,2.3,7.88,2.39,11,5,6.37,5.33,14.57,12.09,22,16,2.58,1.36,4.71.55,7,2,3.07,1.94,5.71,6.27,9,8,8.06,4.25,16.62,3.78,25,8,5.77,2.91,13,8.9,19,12,7.1,3.65,18.27,2.73,25,6,1.75.85,3.79,4.22,6,5l10,1c4.24,1.81,11.5,5.62,16,7,6.51,2,11.06.24,18,2,8.66,2.19,18.1,6,26,8h14c8.83,2.15,21.37,3.86,30,6h47c28.15,0,55.67-.56,77-6h16c5.93-1.92,15.31-6.25,22-8,7.84-2.06,14.06.58,22-2C3101.53,2263,3112.58,2256.16,3134,2256Z" fill-rule="evenodd"/>
    <path d="M2789,2405c.69,1,1.29,4,2,5,1.64,5,5.57,6.22,8,10,3.67,5.69,4.69,10.8,8,17,1.74,3.26,6.2,5.89,8,9q1,6.49,2,13c2.63,5.38,7.42,15.39,11,21l3,2c1.8,3.6.6,6.19,2,10,3.49,9.47,7.94,20.54,12,30,3.51,8.19,10.8,35.85-1,41-1.57,1.07-3.54.16-6,1-20,6.85-19.11,2.64-35-5-12.84-6.17-24.55-9.41-37-16l-8-8c-4.64-2.92-11-2.62-15-6-6.92-5.8-12.62-12.67-19-19-.5-32.43,10.32-32.17,21-51,1.91-3.37,1.88-5.91,4-9l8-8c2.9-4.61,2.54-11.07,6-15,2.08-2.36,5.92-3.64,8-6,1.89-2.15,1.13-5.67,3-8C2777.52,2408.61,2784.68,2408.65,2789,2405Z" fill-rule="evenodd"/>
    <path d="M3086,2524c-11.63,0-22.9,8.92-32,13-6.43,2.88-11.26,2.27-18,5-4.65,1.89-8.21,6.5-14,8h-32v-24c2.23-8.59,7.59-15.49,11-23,.33-3.67.67-7.33,1-11,3-10.95,10.52-32.76,24-33,4.37,6.34,11.42,8.9,17,14,2.34,2.15,3.63,5.89,6,8,3.64,3.25,8.55,4.61,12,8,1.62,1.59,2.32,4.5,4,6,7.81,7,21.49,11.06,22,25C3086.2,2521.18,3086.23,2521.68,3086,2524Z" fill-rule="evenodd"/>
  </g>
</svg>
