<svg xmlns="http://www.w3.org/2000/svg" viewBox="0 0 6000 3137">
  <g class="g_to_interact_with" id="Layer_13" data-name="Layer 13" style="isolation: isolate">
    <path d="M3023,2466c9.85,9.65,19.69,18.84,30,28,8.91,7.92,17.76,15.46,27,23-12.53,5.21-25.09,9.83-38,14-14.51,4.68-29.12,8.67-44,12,5.19-12.54,9.81-25.09,14-38S3019.83,2479.21,3023,2466Z" fill-rule="evenodd"/>
    <path d="M2784,2424a450.63,450.63,0,0,1,62,138,248.19,248.19,0,0,1-110-60,229.22,229.22,0,0,1,48-78Z" fill-rule="evenodd"/>
    <path d="M3142,2409a182,182,0,0,0,52-44,134.61,134.61,0,0,1-77-92,318,318,0,0,1-132,25,226.15,226.15,0,0,1,58,26c28.18,17.81,44.46,38.34,70,61C3122.35,2393.29,3131.89,2401.19,3142,2409Z" fill-rule="evenodd"/>
    <path d="M2797,2275a452.36,452.36,0,0,0-188,159,842.35,842.35,0,0,1-74-78c-61.53-73.77-109.71-157.2-144-248a156.72,156.72,0,0,0,87,64c2.77-27,6.39-53.3,11-80,4.26-24.66,9.19-48.66,15-73a403.74,403.74,0,0,0,293,256Z" fill-rule="evenodd"/>
    <path d="M2545,1737c118.48-173.72,316.84-258.28,502-226,139.39,24.3,257.29,111.72,331,230l-253-32-87-122-51,114Z" fill-rule="evenodd"/>
  </g>
  <g class="g_to_interact_with" id="eyeshadow" style="isolation: isolate">
    <path d="M2912,1727c14.84-.27,56.93-10.39,49.75,5.63,4.57,11.79,19.76,65.83,16.25,84.37-1,.33-9-4.33-10-4-3.79-2.06-12.39-2.9-16-5-3.39-2-15-7.45-19-9l-16-1c-2.26-.75-5.08-4.06-7-5l-21-3c-7-2-12.31-5.74-22-6a148.38,148.38,0,0,1-28-4h-90c-11.45,2.85-28.25,3.06-40,6-4.67,0-9.33,3-14,3-30.52,10-52.74,11.23-93.83,9-24.83-10.72-27.77-10.48-37.17-15-2-1-9.83-4.89-12-6-3-.67,1.9-1.84-6-2-1-3.52-11.47-7.57-14-10-3.35-7.32,4.83-9.74,8-13,28.87,0,28.38,0,52,0,11.13-.43,42.28-3.6,57.89-3.63,1.75-.89,13.47.15,15.11-.37,8.33,0,16.67-2,25-2,16,0,29.39-1,41-2,10,0,20-3,30-3,15.64-3.83,38-1.11,54-5,5.33,0,11.67-2,17-2,12.49-3.06,28.35-4.91,42-6C2884.74,1727.14,2901.67,1724.06,2912,1727Z" fill-rule="evenodd"/>
    <path d="M3187,1787c-6.24,2.76-30.37,16.92-42,19,3.87-23,18.87-59.53,32-79,36.17,7.86,70.23,8,99,16,6,0,15,2,21,2,14.67,0,25.33,3,40,3,7.81-2.11,8.34,2.23,19,3,4,4,12-2,16,2,3.69,1.57,10.48,4.16,14,6,3.1,1.61,2.47,9.57,5,12,1.95,7.44,4.64,12.27,1,16-11-4.28-37.09-11-51.88-10.87-27.62-5.3-50.77-5.28-79.13-4.92-17.17,3.06-38.93,11.62-56,9.79-1.72.3-16.33,4.33-18,6" fill-rule="evenodd"/>
  </g>
</svg>
