<svg xmlns="http://www.w3.org/2000/svg" viewBox="0 0 6000 3137">
  <g id="iphone-cover-babygirl-backgroundcolor" style="isolation: isolate">
    <path d="M3750,746c.51,5.17,3.23,5.84,4,9,.88,3.64-2,8.66-2,14v46c0,49.77.75,107.58,0,151h2a10,10,0,0,1,5-3l1,1c-.33.67-.67,1.33-1,2-2.07.7-7.05,1.1-8,3v32s-3,16-3,16c.64,2.62,4.56,7.06,4,11l-2,2c-.92,4.45,2.26,4.94,3,7,.86,2.39-1,27.06-1,33v158c.63,2.42,3.59,7.2,2,12-1.29,3.88-3.76,4.32-4,11,1.3.47,4,1.21,5,2h-1c-2.75,3.16-3.19,5.41-3,12,.71.45,3.47,1.37,4,2,2.23,2.65-1.4,2.94,0,6,2.83,6.22,12.07,8.72,13,17,3.38,5.49,1,21.3,1,29V2821c0,20.92,1.52,45.33-3,62-1.91,7,.55,22.25-2,28l-4,3v10c-.76,1.61-4.31,2.09-5,4,.33,2.67.67,5.33,1,8l-5,5v9l-4,2v6l-5,4c-1,2.22,2,3.37,0,6-.7.9-3.44.81-4,2-2.16,4.57,1.2,8-2,11-1,.69-4,1.29-5,2-1.09,1.5-.89,4.28-2,6l-9,9c-.84,3.1.74,14.05,0,18h-24a10.92,10.92,0,0,1-2,3,68.83,68.83,0,0,1,0,23h-15c-1.14,2.23-2,6.17-3,9-16-.09-28.88,8.68-37,17-2.6,2.66-5.44,7.55-9,9h-16c-4.3,1.21-8.5,3.8-14,5-3.48,11.39-6.83,8.67-21,8-.84,1.69-1.77,6.21-3,8-4.51,2.78-13.46-1.37-19,1l-3,4H3105c-2.23-4.2-4.91-6.11-7-11-12.13-.25-8.55-4.91-15-7h-50c-39.47,0-81.15.43-119,1-2.3,5.93-4.42,6.42-13,6-1.57-1.83-.88-1.4-4-2-1.12,2.09-1.43,1.83-2,5,.68.77,1.31,2.23,2,3,3.48,3.09,24.27,1.89,31,1l1,1c-.63,1.75-.19,1-1,2v1H2466c-4.46-1.54-8.61-7.46-13-9l-24-1c-3.11-1.08-6.29-5.75-9-7l-16-1c-1.65-.54-4.35-3.46-6-4h-8c-6.65-2.39-15.4-10.3-22-13h-8c-9.79-2.52-17.63-7.61-21-17-4,.13-5.47.54-7-2-1.45-2.29-.52-4.45-3-6-3.52-2.31-12-.64-15-1v-4c4.74-1.34,4.36-3.95,4-10-.8-1-.36-.27-1-2-2.73-1.44-19.85-17.76-21-20v-5l-4-3c-.33-2-.67-4-1-6l-7-2c-1.88-1.93-4.06-12.05-6-15-1.52-2.3-6.74-1.56-8-4v-10l-4-2v-6l-5-4v-9l-4-4v-5l-4-3v-10c-1.29-4.81-4.65-6.42-4-11v-1c-.87-1.77-4.27-2.43-5-4v-21c-5-23-3-53.68-3-81V1215c1.26-3.43,2.92-5.64,3-12l6-6c7.51-3.9,11-1,11-13,1.24-1.57.64-.51,0-2-2.13-7-9.54-6.53-12-12v-26h4l1-1V872h-4a28.89,28.89,0,0,1-1-9c-2.81-4.44-.38-34.18,0-39,3.29-1,11.45-6,12-10,2.23-3.09.83-10.68-1-13-2.23-6.63-7-5.67-11-10-10.13-14.6-8-37-8-62V351c0-28.77-2.4-62.87,3-87V243c.46-1,3.58-1.3,4-2,2.51-4.2-.93-11.22,0-14l5-5V212l4-3v-5l4-4v-8l5-5v-9c.38-1,2.56-1.38,3-2,.67-2.67,1.33-5.33,2-8l6-1c.67-2.33,1.33-4.67,2-7,1.62-2.48,6.47-3.73,8-6v-6l5-4v-5c3.82-7.41,22.11-15.6,25-21,1.48-2.76,1.1-7.48,2-10l9-2,5-8h5l8-9h5l7-8h6l4-5h5l3-4h5l3-4h6l3-4h9l5-5h10c.71-.42,1-3.54,2-4h14l3-4,24-1,3-4c7.79-3.4,15,2.88,18,4l7-1H3499c30.78,0,65.37-2.6,85,6h18l3,4,7,1c1.21.8,1.4,3.37,3,4,3.29,1.29,7.62-.5,10,1,.81,1.19,1.49,4.59,2,6l14,1,4,5h6c1.86,1,3.29,5.61,5,7,3,2.41,11.1,3,15,5l8,9h5c2.29,1.18,18.62,17.66,20,20v4l8,3c.67,2.33,1.33,4.67,2,7,3.75,4.81,13.23,10.82,16,16v5l8,7v5c1.6,3.58,7.23,7.26,9,11,.33,2.67.67,5.33,1,8,.19.32,3.54,2.7,4,4v7l4,4c.33,3,.67,6,1,9l3,3c.33,2.67.67,5.33,1,8l3,2c3.86,8.61,1.67,25.36,4,36,2.74,12.55,1,30.67,1,45V491c-3.53,11.89-18.81,17.63-21,28,3.95,3.63,8.09,7.35,12,11v23l-4,3v68c-1.76,6.08-5.74,6.81-6,16h2c1.07-.75.95-.6,3-1v1h-1a18.72,18.72,0,0,1-5,3c5,13.38,2,48.27,2,71,0,7.28-3.24,18.9-2,22,1.68,6.4,6.48,8.58,11,12v2h-3C3755.74,746.18,3755,746.09,3750,746Z" fill="none" fill-rule="evenodd"/>
    <path d="M2495,142c-6.28,4.62-17,.61-26,3-4.41,1.18-17.87,4.78-22,7l-3,4c-7.78,4.07-14.88,4.14-23,8-10.86,5.16-19.82,15.83-28,24s-19.64,15.61-26,25l-3,8-7,7c-1.61,3.56-.21,6.15-2,9-2.32,3.68-6.5,8.42-8,13v7c-.56,1.4-3.45,4-4,6v11c-.53,1.58-3.45,3.42-4,5-2.1,6.06-2.74,14.81-4,20V653c11.58,46.61,30.54,84.32,64,109l13,14,6,1c2.49,1.53,5.44,5.63,8,7,4.94,2.64,10.82,1.79,16,4,4.38,1.87,9,6.21,14,8,7.89,2.83,14.5-.66,23,2,1.83.57,4.88,3.42,7,4h189c42.44,0,98.51,4.63,134-4h13c14-4.86,26-12,38-18,2.76-1.37,5.52-.5,8-2,4.84-2.93,8.38-9,13-12,28-18.17,39.48-36.43,53-69,1.3-3.13,5.73-6.64,7-10V677c8.06-22.49,7-54.86,7-86V328c0-15.72,1.56-37-2-50-6.9-25.15-16.44-49-30-68-18.89-26.49-61.79-55-97-65h-19c-23.1-6.25-59.85-3-88-3Z" fill="none" fill-rule="evenodd"/>
    <path d="M3734,3008h8v2c2.84,4.23-1.63,6.28-7,6-1.22-2.28-1.64-2.25-2-6C3733.8,3009,3733.35,3009.73,3734,3008Z" fill="none" fill-rule="evenodd"/>
  </g>
  <g id="iphone-cover-babygirl-text" style="isolation: isolate">
    <path d="M2416,1374c.2-2.33.19-2.83,1-4,3.15-9.57,11.61-14.61,18-21,9.25-9.25,17.39-20.18,28-28l7-1c3.47-1.67,6.62-7.11,10-9,19.8-11.08,35.49-3.86,44-29v-17c6.88-21.23,3-62.13,3-89,0-8.37-2.18-33.82,1-39,3.35-9.39,14.43-15.43,21-22,8-8,15.55-17.66,25-24,4.07-2.73,9.34-2.94,13-6,1-.87,1.79-3.23,3-4,6.94-4.42,15-5.68,22-10,8.91-5.49,18.46-11.9,32-13,8.17,8.39,17.09,16.36,25,25,7.75,8.47,12.35,19.4,20,28,4.17,4.69,18.92,13.47,16,21-1.41,3.22-29.39,23.94-34,27-2.89,1.92-7.15,2-9,5,.8,1,.35.27,1,2,18.23,8.6,35.48,18.65,49,32v63c0,11.41.88,25.22-1,35-21.67,12.81-45,24.44-67,37-5.4,3.08-11.59,3.1-17,6-13.32,7.15-27.77,18.2-43,23-6.64,2.09-36.35-12-44-14h-10c-42.35-10.38-86.85,5.93-106,26Z" fill="none" fill-rule="evenodd"/>
    <path d="M3468,1338V1195c0-19.46-3-52.77,0-63v-14c0-13.59-1.29-30.1,1-42a17.33,17.33,0,0,0,5-3l6,2c3.46,8,4,18.91,4,30h5c7.89-10.11,22.4-15.45,32-24,5.08-4.52,5.9-10.09,15-11,7.43,7.91,17.32,13.34,25,21,3.16,3.15,6.31,9.73,11,11,6.61,1.8,10.86-5.94,17-7,1.53,2.46,2.29,2.28,3,6-5.44,5.52-10.42,11.64-16,17v206c-3.75,14.49-17.32,30.25-32,34-9.53,2.43-43.46.73-50-2l-4-4c-5.94-2.35-15.81-.35-22-2-10.49-2.79-17.21-6-32-6-8.61,0-34.62-2.25-40,1-9.12,3-12.05,12.76-18,19-.15,3.87-.54,9.72,1,12,4.36,13.28,18,14,36,14h15c13.53-3.37,25.48-8.78,38-12,17.67-4.55,75.9-4,90,2,4.07,1.72,6.08,6.07,9,9,3.81,3.84,9.15,7.31,11,13v26c-2.67,7.53-15.62,22.77-22,27-5.37,3.56-21.68,11.34-23,1,3.68-2.71,5.76-6.87,9-10,.15-3.87.54-9.72-1-12-5.22-15.31-43.89-10.58-59-6-21.86,6.62-41.56,10-71,10-8.47,0-22.44,2.14-29-1-12.67-6.06-25.49-18.74-30-33-2.79-8.83.45-29.88,1-38,5.05-3.4,6.05-8.56,10-13,7.08-8,17.31-13.6,25-21,.11-26.41,3.64-61.93-1-86l-3-1c-2.18-1.58-9.82-1.55-12,0-4.51,1.44-5.13,4.16-8,7,.15,5.36,2.07,11.71,1,14-1,2.75-1.44,2.2-3,4-1.75-.63-1-.19-2-1-6.37-2-23.79-19.88-24-28,1.07-1.87,1.45-5.49-1-7-1.38,4.44-5.86,9.08-9,12,1.65,3.82.85,40.74-1,50-23.41,10.69-47.9,23.38-69,37l-12,4c-3.06,1.85-5,7.58-8,9h-8c-9.94,3.39-19.48,12.69-30,16-10,3.15-16-4.62-21-7-10.16-4.82-24.13-6.38-35-9h-27c-37.82,0-62.66,10.74-81,30-1.75-.63-1-.19-2-1-2.75-1-2.2-1.44-4-3,.63-1.75.19-1,1-2,5.12-15.75,32.5-28.58,35-42-5.21,0-17.63-4.55-19-8-.8-1.18-.77-1.68-1-4,3.32-3.16,16.62-16.56,18-20,5.8-14.41,6.69-57,3-76l-3-1c-2.68-1.88-15.32-1.86-18,0-10.18,3.36-9.93,13.77-16,21-1.75-.63-1-.19-2-1-3.84-1.19-4.65-2.21-5-7-2.11-3.26-1-12-1-17v-13c2.16-6.58,17.62-22.63,24-25l20-2c1-1.64,3.41-3.3,4-5,2.47-7.11-2.54-18.33,1-24,4-11.56,15.95-14,24-21,2.49-2.18,4.24-6.1,7-8,4.13-2.84,8.72-3.36,11-8,.75-1.07.6-1,1-3-6-3.4-16.33-6.62-24-8-.33,1.67-.67,3.33-1,5h-30v-2c-.75-1.07-.6-1-1-3-2.08.37-1.92.24-3,1-6,2.81-7.82,8.93-15,11v-4c2.3-3.21,2.42-8.07,5-11,1.48-1.69,4.4-2.39,6-4,8.55-8.57,16.94-20.23,29-25,19.47-7.7,50.49.24,66,4,19.21,4.66,33-6.2,45-7,.33,1,.67,2,1,3,.75,1.07.6,1,1,3-18.78,12.17-35.77,27.18-52,42-6.56,6-15.9,9.66-20,18-4.18,8.49-1,28.22-1,39,0,32.32-2.66,68.46,1,99-5.84,4-6.14,11-10,17s-11.05,10-16,15c-2.27,2.27-3.6,5.89-6,8-4.75,4.18-12.48,3.47-15,10-.88,1.29-.89,2.47-1,5a18.26,18.26,0,0,0,6,1c6.86-7.85,21.26-13.37,31-18,5.7-2.71,12.27-1.61,17-5,3.59-2.57,5.74-8.86,9-12,0-8.21.49-17,2-24v-81c0-8.6-2.28-35.75,1-41,3.56-10.37,16.73-17.73,24-25,6.95-7,12.76-15.39,20-22,4.81-4.39,11.32-5.3,17-9,16.7-10.88,32.71-26,58-28,5.17,5.35,12.1,9.43,17,15,2.89,3.28,3.11,8.72,6,12,4,4.5,9.95,7.57,14,12,4.86,5.32,7.19,12.6,12,18,5,5.6,12,7.14,13,17-7.74,6.93-38.05,24.18-41,31-.8,1.18-.77,1.68-1,4,19.82,5.72,36.9,20,50,33v20c1.68,4.77,7.13,6.7,9,12h1c1.39-16.58,18.74-35.73,32-40,8.7-2.8,15.61,1.82,19-6,2.1-3.28,1-12,1-17v-41c0-4.83,1-12.89-1-16-1.69-5.32-5.6-6.57-9-10-3.47-.13-8-.33-10,1-8.71,2.91-10.74,12.3-20,15v-12c1.78-2.61,1.27-7.11,3-10,3-5,17.66-18.41,23-21,8.48-4.12,39.91-4.83,48,0,6,3.6,19.64,20,22,27v173c0,18.92-2.22,41.88,1,59l3,1C3452.33,1337.8,3461.7,1338,3468,1338Z" fill="none" fill-rule="evenodd"/>
    <path d="M2728,1366c.51-18.77,26.08-44.4,38-53,4-2.91,9.55-4.5,13-8,2.71-2.75,1.94-7.45,4-11,5.6-9.63,12.48-17.49,18-28,2.74-5.21,17-25.23,16-28-2.76-8.2-12.64-12.3-19-17-2.6-1.92-2.85-5.59-5-8s-5.93-3.63-8-6c-2.94-3.36-2.55-9.08-5-13-1.78-2.84-5.62-6.77-7-10-3.66-8.54-1.27-40.45,1-48,2.38-7.91,2.91-15.68,7-22,8-12.38,38.87-43.15,53-48l13-1c2.57-1.19,5.69-4.15,9-5h15c19.4,0,33.67,1.88,47,6l8,1c6.73,3,13.76,11.58,22,13,2.59.45,5.75-1.91,10-2,2.63-4.49,11.73-17,17-18,1.13,1.55,1.08.84,2,3,1,1.42,1,3.27,1,6-5.74,3.54-11.91,9.86-14,17,4.65,5.55,2,43.84,2,55v111c0,35.45-3.71,58,23,68,1.46-5.49,5.67-8.36,9-12,1.75.63,1,.19,2,1,2.87,1.12,1.84.17,3,3,.92,1.59,1.52,5.43,2,9-9.37,8.7-38.42,39.74-51,41-4.06-3.79-9.43-5.7-14-9-11.12-8-22.54-19.09-32-29-1.75.63-1,.19-2,1-16.07,5.4-25.31,31.14-44,33-14.53-14.13-35.15-20-64-20h-16c-19.19,4.77-38.11,15.48-50,28Z" fill="none" fill-rule="evenodd"/>
    <path d="M2448,1096h-3c-2.47,6.83-12.19,11.08-17,16h-4c.89-10.44,9.11-19.06,15-25,8.77-8.85,14.43-14.63,27-20,18.7-8,47.73-1,64,3h33c1.8-3.45,9.49-8.9,15-9a10.92,10.92,0,0,0,2,3c-.63,1.75-.19,1-1,2-2.32,5.39-16.11,11.72-22,17-1,.86-1.06,3.08-2,4-4.28,4.18-9.62,8-14,12-11.2,10.16-29.38,17.72-35,33v130c-5.95,21.4-20.64,35.81-37,47-9.33,6.38-18.69,15.24-35,12a10.92,10.92,0,0,0-2-3c.63-1.75.19-1,1-2,2.93-8.59,12.63-11.68,16-20,6.63-16.37,8.19-53.88,4-76l-3-1c-2.68-1.88-15.32-1.86-18,0-10.62,3.75-9.28,18.76-18,20a51.12,51.12,0,0,0-6-7c-.4-28.81-1.56-30.45,13-45,2.82-2.82,4.95-7.53,9-9l22-3c1-1.64,3.41-3.3,4-5,2.47-7.11-2.54-18.33,1-24,5.93-17.14,37.67-24.09,44-37,.8-1.18.77-1.68,1-4h-2c-8.56-5.47-36.62-2.13-51-2v-2C2448.12,1099.71,2448.11,1098.53,2448,1096Z" fill="none" fill-rule="evenodd"/>
    <path d="M2590,1096c-4,4.37-7.73,9.86-12,14v92c0,16.59,1.72,35.32-3,48a82,82,0,0,1-18,28c-5.14,5.15-13.23,8.6-14,18,9.16,2.24,22.08,1.11,32,4,4.36,1.27,11.46,7,16,5,2.07-3.34,1-11.91,1-17V1096Z" fill="none" fill-rule="evenodd"/>
    <path d="M3218,1098c-3.68,17-2,41.74-2,62,0,8.76-1.33,21,1,28,1.75-.63,1-.19,2-1,5.78-1.55,7.86-6,12-9,8.38-6.06,32.81-18.88,34-30-6.1-4.54-7-11.37-12-17-2.73-3.1-7.07-5.06-10-8-4.09-4.1-6.11-9.63-10-14-3.55-4-8.49-6.88-12-11Z" fill="none" fill-rule="evenodd"/>
    <path d="M2880,1099c-2.17,6.46-36.8,4.28-47,4v1c-10.44,4.8-19.61,19.45-28,27-1.55,1.39-4.8,1.33-6,3-6.17,8.61-7.41,47.15-3,60,1.46,4.24,10.92,23.65,14,26,4.06,3.1,8.53,4.42,12,8,1.75-.63,1-.19,2-1,6.56-4.61,8.77-14,13-21l6-6c3.57-5.72,4.34-12.35,8-18,3.91-6,10.41-11.87,14-18,.67-2.67,1.33-5.33,2-8,3.82-6.59,8.1-12.67,12-20,3.27-6.13,18.74-22.55,16-30-1.12-2.87-.17-1.84-3-3C2891.5,1102.67,2880.6,1099.12,2880,1099Z" fill="none" fill-rule="evenodd"/>
    <path d="M3204,1304V1169c0-22,2.85-48.84-1-69h-4c-1,.8-.27.35-2,1-1.48,4.58-5.66,6.89-7,11v34c0,28.54,4.09,69.55-2,94v8c-4,15.49-17,27-27,37-4.33,4.34-9,6.11-11,13h22C3177.26,1301.67,3195.14,1304,3204,1304Z" fill="none" fill-rule="evenodd"/>
    <path d="M2606,1112v72c2.09,1.12,1.83,1.43,5,2,7-10.11,42.55-25.52,44-38-10.9-8.25-26.46-37.36-41-39C2611.87,1111.09,2610.12,1111.71,2606,1112Z" fill="none" fill-rule="evenodd"/>
    <path d="M2914,1214v-64c0-11.72.94-25.92-1-36a15.61,15.61,0,0,0-5-1c-4.33,8.72-12,17-17,25-9.83,15.71-16,32.45-26,48-1.37,2.14-4.4,3.16-6,5-2.85,3.27-9.77,18.68-11,23Z" fill="none" fill-rule="evenodd"/>
    <path d="M3497,1114l-15,15c-.11,19.46-2.42,43.38,1,61,9,5.58,30.29,10.45,36-2,2.1-3.29,1-12,1-17,0-14.47,1.57-32.26-1-45a61.18,61.18,0,0,1-16-12Z" fill="none" fill-rule="evenodd"/>
    <path d="M3218,1197c-4.17,9.31-3.23,33.94-1,45,1.75.63,1,.19,2,1,10.29-2.37,19.28-10.4,28-14,6.7-2.77,14.89-2.72,16-11C3249.12,1211,3237.42,1197.8,3218,1197Z" fill="none" fill-rule="evenodd"/>
    <path d="M2606,1198c-.31,10.49-3.29,38.75,4,42,1.07.75.95.6,3,1,7.42-9.62,34.22-7.33,36-23C2637.63,1209.7,2625.12,1198.31,2606,1198Z" fill="none" fill-rule="evenodd"/>
    <path d="M3482,1206c-.13,8.66-1.35,21.1,1,28,6-1.16,35.46-.76,36-1,3.14-4.88,1.13-20,1-27l-2-2C3506.1,1209.77,3496.07,1206.81,3482,1206Z" fill="none" fill-rule="evenodd"/>
    <path d="M2660,1234c-7.62,0-7.81,2.93-12,5s-8.48.74-12,3c-3.18,2-6.3,6.46-10,8-7.06,3-17.52,3.86-20,11v22a21.58,21.58,0,0,0,7,1c9.34-8.69,42-17.26,46-28C2661.6,1252,2660.13,1240,2660,1234Z" fill="none" fill-rule="evenodd"/>
    <path d="M3247,1274v-3c8.08-1.75,21.43-7.76,24-15,1-1.42,1-3.27,1-6-2.34-2.33-3.63-5.7-6-8,.81-3.27,1.63-3.89,2-8h-2c-10.06,8-43.05,15.69-47,27-2.6,4-1.13,16-1,22a21.58,21.58,0,0,0,7,1c1.05-1,4.94-4.54,6-5h9C3243.39,1276.82,3238.84,1274.85,3247,1274Z" fill="none" fill-rule="evenodd"/>
    <path d="M3489,1244l-7,7c-.11,25.86-3.47,63.81,1,87,3.9,1,6.3,2,12,2,22-20.88,25-19.73,25-63,0-6.78,2-20.3-1-25-1-3.62-2.47-5.78-6-7C3508.64,1242.18,3495.41,1243.87,3489,1244Z" fill="none" fill-rule="evenodd"/>
    <path d="M2824,1256c-9.91,10.8-20.3,23.23-24,40h16c3.94-2.55,15.13-1,21-1,9.61,0,23.17,1,31,4,8.39,3.2,13.45,11.74,24,13,3.27-3.39,7.67-5.67,11-9,4-4,6.94-9.08,11-13,.1-10.44.74-23.18-1-32l-3-1c-4.56-2.85-17.42-1-24-1Z" fill="none" fill-rule="evenodd"/>
    <path d="M2660,1276c-11.42.1-16,6.82-23,11-4.5,2.67-9.85,2-15,4-7.28,2.86-12.89,7.92-18,13,0,3-.29,6.18,1,8s24.83,18.57,27,18c6.26-1.64,12.86-8,18-11,4.18-2.46,7-.12,9-5C2662,1309.29,2660.11,1283.88,2660,1276Z" fill="none" fill-rule="evenodd"/>
    <path d="M3264,1277c-6.73,6.12-16.83,7.18-26,11-3.1,1.29-5.36,5.62-8,7h-4c-4.51,1.91-6.77,5.84-10,9v6c7.12,6.92,17,17.61,30,18,6.79-4.57,21.84-6.17,25-14,1.75-2.6,1.74-29.39,0-32-.88-2.72-1.71-2.94-3-5Z" fill="none" fill-rule="evenodd"/>
    <path d="M3200,1774c-2.33.2-2.83.19-4,1-6.64,2.16-8.74,8.81-14,12-16.78,10.19-32.89,21.16-46,35-1.75-.63-1-.19-2-1-4.07-1.34-5-4.08-8-6-8.36-5.34-17.94-9.93-27-14-12.36-5.56-39.95-2.86-57-3-4.39,9.42-2.58,9.67-17,9-6.49,6.79-14.49,12.23-21,19h-8c1.1-14.36,28.16-42.41,38-49,5.82-3.89,16.12-4.31,19-11,2.75-4.35,1-16.65,1-23,0-20.72,2.74-46.16-1-65l-3-1c-11.85-7.52-27.71,5.37-31,11-.67,3.33-1.33,6.67-2,10-1.12,1.34-2.76.63-5,1-1.71-2.73-2.54-2.5-3-7-1.26-2-.23-4.91-1-8-5.28-21.11-.09-27.93,11-39,2.91-2.91,4.92-7.31,9-9,5.51-2.28,22.85-3.23,25-8,2.32-3.63,1-13.53,1-19v-44c0-5,1.1-13.71-1-17-1.69-5.32-5.6-6.57-9-10-4.28-.15-11.39-.74-14,1-7.75,2.63-7.42,11.18-14,14-1.18.8-1.68.77-4,1-.15-4.28-.74-11.39,1-14,2.16-7,7.47-10.45,12-15,12.47-12.55,16.16-19,42-19,7.78,0,14.07.08,19,3,6.41,3.79,20,18.85,22,27,1.82,7.31-.1,17.77,1,24a10.92,10.92,0,0,1,3,2c1.75-.63,1-.19,2-1,6.05-1.94,8-7.07,12-11-.11-12.29-1.09-27.38,1-38a10.92,10.92,0,0,0,3-2c1.75.63,1,.19,2,1,2.87,1.12,1.84.17,3,3,2.82,4.36,1.13,17.59,1,24,2.72,0,4.6,0,6-1,7.92-2.58,11.46-10.93,17-16,7.71-7.06,17.82-11.45,25-19,1.75.63,1,.19,2,1,7.23,2.69,6.43,10.81,11,16,3.44,3.91,9,6.65,12,11,8.34,12.14,14.32,26.09,24,37,3.72,4.19,14.57,12.33,12,19-3.71,10.83-16.14,16-24,23-2.39,2.13-3.71,5.74-6,8-4.38,4.31-9.64,7.68-14,12s-10.53,6.56-12,14c19.5,12.57,34.33,30.65,44,53,.33,3.33.67,6.67,1,10,1.36,4.44,4.71,10.82,6,16v10c3.42,10.6,12.42,33.57,19,41,2.42,2.74,6.42,4.37,9,7h4c4.26-4.53,12.28-11.47,20-12,.33,1,.67,2,1,3,2.52,5.58-9,11.16-13,14l-16,16c-6.05,4.36-13.43,7.06-19,12-4.5,4-4.76,8.25-13,9C3219.91,1809.55,3200.23,1797.59,3200,1774Z" fill="none" fill-rule="evenodd"/>
    <path d="M2796,1698l-6-1a43.87,43.87,0,0,1-6-13c-5.33-22,10.38-43.28,22-48,7.85-3.19,16.48-3.31,26-5,.33-1,.67-2,1-3,4-6.56-1.47-21,2-28l4-3c2.85-4,4.48-8.73,8-12,2.85-2.65,7.07-3.39,10-6,4.63-4.12,7.94-10.3,13-14,3.51-2.57,11.83-6,13-8,.8-1.18.77-1.68,1-4-2.42-1.3-2.83-1.8-7-2-1.5,2.53-1.51,3.16-5,4-6.14-3.85-19,.94-27-1-1.55-.37-2.71-2.58-4-3h-41c-7.77,2.56-10.05,12.72-19,14-1.77-2.25-2.37-2.13-3-6,7.58-5,11.69-15.66,17-23,6.59-9.11,21.8-20.82,33-25,5.43-2,34.84-2.84,42-1,6.36,1.63,15.81,6.25,22,8,11.32,3.19,28.26-.94,37-2,1.37-4.92,4-5,7-8,1.75.63,1,.19,2,1,3.48,1.37,3.07,2.28,3,7-8.1,4.2-11.84,12.85-18,19-13.29,13.28-31.12,22.34-37,43v31c0,28.43,3.91,68.59-2,93q-.49,8-1,16c-2.65,5.34-16,19.64-21,23-3.73,2.5-8.23,2.56-12,5-10.15,6.55-18.79,12-36,12v-2c5.49-5.23,13.64-14.21,17-21,4.89-9.88,4.55-45.89,2-59l-3-1c-1.9-1.27-5.66-1-9-1-15.59-.07-17.67,4.59-25,12Z" fill="none" fill-rule="evenodd"/>
    <path d="M2726,1551v3c-15.08,9.58-26.5,26.5-39,39-5.33,5.33-12.66,8.68-15,17,14,0,17.91,5.92,26,11,21.86,13.74,37.5,32,46,59v52c-11,34.18-43,64.28-72,81l-6,1c-4.17,1.66-7,5.63-12,7-4.52,1.24-9.65-.44-13,2-1.2.87-1.45,4.31-3,5h-27c-30.5,0-42.52-6.78-63-15-3.38-1.36-5.08-.33-8-2-5-2.88-8.79-8.27-13-12-2.95-2.61-7.12-3.36-10-6-5.16-4.72-9.05-11-14-16-3.57-3.57-9.41-6.63-12-11-4.87-8.21-5.68-15.89-10-25-.52-1.1-3.52-3.89-4-5-3.87-9-8.67-55-5-70,4.84-19.71,11.54-40.24,21-56,5.72-9.53,16.24-17.24,24-25,5-5,9.14-12,15-16,13.53-9.3,30.31-17.26,46-24l28-3c5.65-2,8.88-9.23,13-13,7.72-7.06,17.77-11.48,25-19,1.75.63,1,.19,2,1,6.82,2.22,10.47,9.33,16,13,8.14,5.41,16.57,8.07,26,12,8.14,3.39,14.79,10.79,26,12,2.28-2,11.88-10.1,13-9,2.39.84,1.64.4,3,2,2.3,2.81,1.76,5.33,1,9h-2C2727.93,1550.75,2728.05,1550.6,2726,1551Z" fill="none" fill-rule="evenodd"/>
    <path d="M3518,1513h4c1.3,2.42,1.8,2.83,2,7-21.47,10.19-40.38,16-48,40v109c0,14.19,1.2,29.47-2,41-5.37,19.35-24.78,33.75-38,46v2h38c6.38,4.31,17.61,1.75,26,4,5.79,1.55,10.62,6.26,16,8h8c1.68.55,4.34,3.34,6,4l8,1c2.36,1.18,8.23,9.7,11,7,5.28-2.83,5.45-5.88,14-6,1.37,2.54,1.92,3.5,2,8-.68.77-1.31,2.23-2,3-3.68,3-7.76-.25-12,3-.33,1-.67,2-1,3-3.33,3.39-7.52,6.83-11,10-4.62,4.21-11.3,5.83-16,10-4.42,3.92-5.25,9.1-13,10-5.95,3.17-13.56-4.74-18-7a110.26,110.26,0,0,0-50-12h-54c-14.34,4.54-30,11.4-44,17-6,2.38-11.12,7.15-18,9v-8c3.75-3.66,5.45-9.11,9-13,4.72-5.16,11.05-9,16-14,4.33-4.33,7.78-10.66,13-14,19.67-12.59,50.92-16.13,58-41v-15c2.56-9.94,2-26,2-39v-94c1.18-4.87,4.73-10.37,6-14,2.09-6,2-14.28,5-19,3.08-4.92,9.77-8,14-12,2.81-2.62,4.06-7.58,7-10,6.47-5.33,18.36-10.68,26-14C3491.58,1518.84,3511.23,1519.22,3518,1513Z" fill="none" fill-rule="evenodd"/>
    <path d="M2964,1528c-1.75,40.54-2,94.25-2,141,0,14.28,3,50.47-1,61-1.57,4.12-5.4,6-8,9-2.32,2.64-2.12,5.78-4,9-2.95,5-8.26,8.77-12,13-5.43,6.13-8.49,14-14,20-1.5,1.64-4.53,2.34-6,4-2.9,3.27-3.53,8.34-7,11-9.58,7.35-19.54,12.46-30,19-3.29,2.06-6.27,6.38-10,8l-17,1c-22.77,0-43.82-7-65-3a25,25,0,0,1-4,5c-.15,4.28-.74,11.39,1,14,2.51,7.5,11.59,9.42,17,14-.63,1.75-.19,1-1,2-1,2.75-1.44,2.2-3,4-21.48-5.14-51.17-35.68-38-68,2.95-7.24,20.41-21.82,28-25,9.58-4,32.2-1.12,39,2,7.29,3.34,13.46,2.67,21,6,14.55,6.43,27.55,16.39,48,17,4.13-4.3,10.12-7.51,12-14V1616c0-18.88-1.08-38.33,4-52,1.65-4.44,30.16-32.11,35-35,2.44-1.45,5.4-.51,8-2l6-8,7-1c3.12-2.1.77-3.54,7-4,.33,1,.67,2,1,3,.75,1.07.6,1,1,3-3.23,2-5.7,5.38-9,7C2966.82,1527.8,2966.32,1527.77,2964,1528Z" fill="none" fill-rule="evenodd"/>
    <path d="M3458,1516c.23,4.52-.05,4.53-1,9-4.87,2.17-6.11,7.1-10,10-20.78,15.51-30.83,20.06-39,49v37c0,33.43,4.53,87-4,113-4.5,13.7-18.71,24.59-30,32-11.54,7.58-13.74,12.1-34,12,.37-2.08.24-1.92,1-3,2-4.43,6.56-7.16,9-11,2-3.15.55-5.73,2-10,.56-1.64,3.48-4.35,4-6v-19c0-14.53,1.44-32.18-1-45l-3-1c-2.68-1.88-15.32-1.86-18,0-9.09,3-10.52,12.5-16,19-1.75-.63-1-.19-2-1-2.87-1.12-1.84-.17-3-3-1.71-2.54-1.09-6.51-2-10-6.27-24,7.86-44,23-50l20-3c.33-1,.67-2,1-3,3.64-6.09-1-18.19,1-26,3.89-15.36,15.45-26.16,26-35-1.21-13.82-15.75-11.91-28-15-4-1-13.34-4-20-2-7.07,2.11-15.27,10.93-20,16h-4c.49-19,34.14-52,50-56,14.12-3.52,39.35,1.32,48,5,.65.28,2.94,2.7,4,3C3430.41,1527.22,3444.72,1516.27,3458,1516Z" fill="none" fill-rule="evenodd"/>
    <path d="M3146,1546c-3.18,3.3-6.7,6.82-10,10v70c0,12.34-1.05,27.31,1,38a15.61,15.61,0,0,0,5,1c8.76-11.85,22.07-18.27,33-28,7.66-6.82,13.61-15.87,21-23-2.59-10.52-10-14.57-15-22-2.73-4-2.92-9.37-6-13-3.52-4.14-9.17-8.32-12-13C3158.32,1558.26,3155.63,1548.62,3146,1546Z" fill="none" fill-rule="evenodd"/>
    <path d="M2602,1550v106h2c5.26-5.39,11.67-9.67,17-15,10.33-10.33,19.67-21.67,30-32,5.87-5.87,16.83-10.84,18-21-17.52-12.1-47.23-23.42-61-38Z" fill="none" fill-rule="evenodd"/>
    <path d="M3110,1755a75.21,75.21,0,0,0,15-1v-2c3.73-6,1-39.13,1-49V1575c-3.87-2.24-5.9-3-11-2a20.86,20.86,0,0,1-5,7c.88,4.8-2,11.21-1,14,.71,2.07,3.79,1.4,3,6-.72,4.17-3.53,9-3,14C3112.56,1647.31,3110.11,1710.13,3110,1755Z" fill="none" fill-rule="evenodd"/>
    <path d="M2536,1733l5-1c14.37-25.23,11-64.32,11-104,0-13.45,1.28-36.22-1-42-.87-3-1.36-3.79-4-5-1.07-.75-.95-.6-3-1-4.65,9.55-12.14,19.86-16,34v31c0,15-1.38,34.27,2,46v15C2532.16,1713.59,2535.31,1723.79,2536,1733Z" fill="none" fill-rule="evenodd"/>
    <path d="M2638,1652c-1.57,1.8-2,1.28-3,4-4.21,6.5.46,44.6,2,52h2c7.14-9.62,35.21-14.81,39-24h-1C2674,1675.09,2647.49,1654.64,2638,1652Z" fill="none" fill-rule="evenodd"/>
    <path d="M2618,1659c-3.42,4.69-11.61,12.8-16,17,.13,31.94-5.86,50-24,63-5.71,4.1-26.7,11.71-29,17-.8,1.18-.77,1.68-1,4,3.35,3.39,2.25,7.63,5,12l12,11c13.46,13.46,29,32.63,58,27v-2c3.67-5.92,1-38.29,1-48a365.7,365.7,0,0,1,3-45c.5-4.21-4.74-4.63-4-10,1.78-12.86,2.71-31,0-45A15.61,15.61,0,0,0,2618,1659Z" fill="none" fill-rule="evenodd"/>
    <path d="M3142,1678l-6,6v22c0,17.28-2.1,38.52,1,54,10.41,4.56,21.84,6.91,31,13,3.33,2.21,5.65,7.56,10,6,4.74-1.44,13.28-8.52,15-13,3.85-6-2.33-22.13-4-28-3-10.63-7.73-27.88-14-35-4-4.51-9.73-7.74-14-12C3155.69,1685.7,3151.86,1678.73,3142,1678Z" fill="none" fill-rule="evenodd"/>
    <path d="M2682,1698c-4.81,3.84-9.42,3.34-16,6-8.92,3.61-23.19,13.55-30,20v23c1.75.63,1,.19,2,1,13.83-2.94,24.46-13.69,36-19,7.09-3.26,14.21-3.79,17-11,1.34-2,1.1-6.51,1-10C2688.44,1704.14,2687.94,1699.71,2682,1698Z" fill="none" fill-rule="evenodd"/>
    <path d="M2684,1739c-9.77,6.64-43.2,15.45-47,25-2.86,4.49,1,34.86,1,42,2.81,1.51,5,2,10,2,2.46-6.71,14-6.62,19-11,13.94-12.28,29.52-28.51,24-57l-1-1Z" fill="none" fill-rule="evenodd"/>
  </g>
</svg>
