<svg xmlns="http://www.w3.org/2000/svg" viewBox="0 0 6000 3137">
  <g class="g_to_interact_with" id="phonegrip-halo-background" style="isolation: isolate">
    <path d="M3420,1953v3h-6c-.21,7.86-15.19,5.41-24,8-28.26,8.3-71.64,4.23-106,4-.18-17.31,7.78-33.42,12-48,7.85-27.15,6.59-58.4,14-86v-64c0-83.5-20.95-136.07-54-186l-11-10c-3.77-5.15-6.24-9.85-10-15l-14-14c8.47-1.34,14.72-8.34,21-12,9.26-5.4,17.53-8.79,27-14,5.29-2.91,9.81-9,15-12,40.88-23.85,101.49-70.71,114-121v-32h-4c-14.67-63.49-145.84-51.55-208-36h-10c-6.06,1.55-13.94,4.44-20,6h-8c-110.65,28.83-214.9,62.32-307,109-6.12,3.1-11.07,3-17,6-21.91,11-44.31,24.06-65,36-5.39,3.11-11,3.68-16,7-40,26.34-78,52.83-111,86-6.8,6.83-16,18.09-20,27-2.85,6.32-2,13.8-10,15-.78,10-5.38,38.17-2,50,6,20.87,26.82,34.23,48,40,9.81,2.68,19.59,3.91,28,6h19c1,1.42,1,3.27,1,6-6.49,8.57-4,44.41-4,60v35c.3,1.22,2.2,2.93,2,5-.32,3.26-3.57,10-2,16,.62,2.37,3.11,5.45,2,10-.83,3.4-3.89,11.07-3,16,1,5.46,3.72,12.26,5,17,2.56,9.48-1.35,20.36,1,28,.68,2.22,4.21,4.29,5,6,2.33,5,.41,9.26,2,15,2.22,8,5.69,19.34,8,27,1.05,3.47,3,10.89,1,13-1.66,1.74-8,.74-10,2-1.14,1.69-1.07,4.9-1,8h-64c-6.87-3.08-18.06-3-29-3,.29-2.46.66-.48,0-3-18.45.12-18.11-7.21-30-8v-3h-3c-1-2.77-9.81-11.8-11-10-1-2.18-.34-5.45-1-7-2.69-.42-2.2-2.48-2-8h-3v-11l-3-1c-1.72-3.62-.24-17.24-2-22q-.49-284-1-568v-74c0-12-1.52-27.71,1-38,3-12.28-.71-25.9,2-37v-17c5.54-18.29,6.57-35,20-45,22.64-16.83,77.68-16,117-16h37c12.37-1.83,29-1,43-1h310l160-1c21.38,0,57.63-3.49,76,1h36c21,.13,48.79,2.43,63,11a50,50,0,0,1,20,23c4.55,10.76,4.06,25,7,37v19c2.32,10.43,1,25.85,1,38,0,17.75,1,36.93,1,56,0,157.27,2,315.16,2,474v78c0,14.83.94,32.11-2,44-1.51,6.13.21,15-1,20v13c-3.49,14.88-4.63,31.64-18,37,.33.67.67,1.33,1,2h-1v1l-3-1c.17,3.15.52,1.5,0,4A15.61,15.61,0,0,0,3420,1953Z" fill-rule="evenodd"/>
    <path d="M3250,1354c31.88-.39,73.74-4.35,98,5,7.86,3,12.41,11.51,18,17-4.32,15.8-18.79,24.79-29,35-29.73,29.72-65.41,53.1-104,74-6.8,3.68-14.25,10.12-21,14-3.79,2.18-7.15,1.92-11,4-5.93,3.2-9.87,8.65-18,10-16.38-17.4-36.19-31-56-45-5.33-3.78-16.37-16.11-28-12-5.84,2.06-2.47,8.81-10,10-1-.8-.27-.35-2-1-9.72-17.54-19.54-36.4-37-46a157.35,157.35,0,0,0-23-10c-3.55-1.25-8.19-.22-11-2,15.73-.76,31.72-8.72,44-14l10-1c3.71-1,8.63-3.8,12-5l14-2c20.86-7.47,47.48-13.36,70-19h10c11-2.77,27.27-5.34,38-8C3224.88,1355.31,3242.47,1359.43,3250,1354Z"  fill-rule="evenodd"/>
    <path d="M2990,1406c6.33-.23,14.4-.67,18,2-7.44.16-23.81,2.35-29-1C2982.67,1407.14,2987.88,1407.43,2990,1406Z" fill-rule="evenodd"/>
    <path d="M2977,1408h2v1C2977.25,1408.37,2978,1408.81,2977,1408Z" fill-rule="evenodd"/>
    <path d="M2909,1447h8c2,3.42,3,4.94,3,11-2.7,2.68-7.26,6.68-9,10-1.1,2.1-.1,6.86-2,8h-4l-1-1a81.77,81.77,0,0,0-1-16l-7-2c.33-1,.67-2,1-3C2901,1452.22,2906,1450,2909,1447Z" fill-rule="evenodd"/>
    <path d="M2862,1469h4v2c-11.67,3.91-19.63,18-29,25-32,23.77-66.78,58.61-90,91-10.43,14.55-19.59,30.8-28,47-2.1,4-5.68,18.44-9,20h-36c-5.8-3.86-16.59-1.92-24-4-9.69-2.72-15.8-7.91-22-14v-4c6.24-6.49,8.94-16.37,15-23,23.7-25.93,53.12-45.12,83-65,9.67-6.43,19.94-15.19,30-21,18.17-10.5,36.24-17.84,55-28,2.18-1.18,4.94-5,7-6l9-2c7.47-3.74,16.26-10.28,24-14C2854.87,1471.14,2859.1,1471.6,2862,1469Z" fill-rule="evenodd"/>
    <path d="M2903,1543h6c4.65,21.39,18.19,43.42,34,54,5.87,3.93,12.11,5.84,18,10-.82.85-1.05,3.35-2,4l-15,3c-10.65,3.66-22.92,9.07-34,12h-8c-19.54,5.82-43.8,12.65-64,18h-10c-13.51,3.4-29.68,7.41-46,8v-1c.8-1,.35-.27,1-2,6.78-4.44,10.38-12.37,16-18a360.56,360.56,0,0,1,40-35l10-11C2865.8,1572.48,2891.65,1560.24,2903,1543Z" fill-rule="evenodd"/>
    <path d="M3104,1853c8.5-.3,10-4.09,15-7,6.31-3.65,12.53-4.62,19-8,11.71-6.11,21.89-16.55,37-16,7.93,10.67,36.66,13.58,41,26,3.14,9-15.63,23.64-21,29-19.84,19.81-44.63,35.84-71,49-10,5-20.07,6-31,10-14.5,5.32-33.5,8.83-50,13-22,5.56-76.66,3-96-2h-8c-18-4.66-36.93-8.51-54-15-8.64-3.28-16.14-10.48-24-14l-10-2c-3.17-2.77-4.13-7.71-8-10-27.7-16.41-47.66-35.38-66-61a225.5,225.5,0,0,1-31-61c-1.63-5-.52-7.92-2-13-2.16-7.38-4.65-26.61-2-37,2.77-10.86,7.63-22.87,12-33,10.13,2.15,19.77-.89,28-3h12c21.63-5.62,48.82-10.44,70-16,56.69-14.89,110.84-27.21,160-49l11-2c3-1.4,8.08-4.72,11-6l11-2c13.45-6.47,29.56-13.9,43-20,6.68-3,12.55-2.8,19-6,7.38-3.67,16.22-10.25,24-13,6.69-2.37,9.56,3.71,12,6,6.94,6.53,15.26,11.31,22,18,3.7,3.67,7.7,5.8,12,9,7.87,5.87,14.13,15,20,23l10,9c7.4,10.16,11.93,20.31,18,32,4.76,9.16,11.63,17.38,12,31l-6,5c-13.85.15-23.37-3.5-36-4-1.51-2.89-4.37-12.1-7-14-2-1.41-5.46-.3-7-2s-.83-4.78-2-7c-3.53-6.67-8.5-14.31-12-21-3.1-5.93-3-15-11-16-6.16,15.61-15.29,30.25-23,45-3.07,5.88-4.06,15.14-10,18-5.48,3.69-12,1-20,3-9.73,2.41-43.86,4.58-50,9-.75,1.07-.6,1-1,3l50,50C3114.3,1807.28,3104.46,1827.37,3104,1853Z" fill-rule="evenodd"/>
    <path d="M2962,1608c2.08.37,1.92.24,3,1C2962.92,1608.63,2963.08,1608.76,2962,1608Z" fill-rule="evenodd"/>
    <path d="M2968,1610c2.08.37,1.92.24,3,1C2968.92,1610.63,2969.08,1610.76,2968,1610Z" fill-rule="evenodd"/>
    <path d="M2972,1611c2.08.37,1.92.24,3,1C2972.92,1611.63,2973.08,1611.76,2972,1611Z" fill-rule="evenodd"/>
    <path d="M3025,1611c2.08.37,1.92.24,3,1C3025.92,1611.63,3026.08,1611.76,3025,1611Z" fill-rule="evenodd"/>
    <path d="M2976,1612c2.08.37,1.92.24,3,1C2976.92,1612.63,2977.08,1612.76,2976,1612Z" fill-rule="evenodd"/>
    <path d="M3021,1612c2.08.37,1.92.24,3,1C3021.92,1612.63,3022.08,1612.76,3021,1612Z" fill-rule="evenodd"/>
    <path d="M2980,1613c2.9-.06,5.47,0,7,1C2984.1,1614.06,2981.53,1614.05,2980,1613Z" fill-rule="evenodd"/>
    <path d="M3011,1613c3.28-.12,7.18-.24,9,1C3016.72,1614.12,3012.82,1614.24,3011,1613Z" fill-rule="evenodd"/>
    <path d="M2988,1614c2.08.37,1.92.24,3,1C2988.92,1614.63,2989.08,1614.76,2988,1614Z" fill-rule="evenodd"/>
    <path d="M3007,1614c2.08.37,1.92.24,3,1C3007.92,1614.63,3008.08,1614.76,3007,1614Z" fill-rule="evenodd"/>
    <path d="M2992,1615c4.28-.15,11.39-.74,14,1C3001.72,1616.15,2994.61,1616.74,2992,1615Z" fill-rule="evenodd"/>
  </g>
  <g class="g_to_interact_with"  id="phonegrip-halo-halo" style="isolation: isolate">
    <path d="M3398,1354v32c-10.12,40.28-40.19,63.12-67,87-2.11,1.88-8.69,8.78-10,11-4.06,6.9-1.13,10.93-9,15-10.38,5.36-22.9,5-32,11-3.34,2.21-6.63,7-10,9-9.25,5.48-17.78,8.89-27,14-7.13,4-12.87,11-23,12-7-9.33-28.77-22.58-31-34,50.27-28.35,104.36-56.67,144-96,9.63-9.56,19.67-17,27-29,2-3.25,6.48-6.18,5-10-7.2-22.29-41-22-71-22-55.81,0-102.23,6.81-146,18h-10c-12.81,3.32-29.88,8.7-42,13-11,3.91-20.8,3.53-32,7-11.62,3.6-26.13,10.68-38,14-13.32,3.72-22.51-3-36,0-10.43,2.32-18.59,3.41-28,7-6.07,2.32-18.22,9.74-23,14-6.28,5.59-10.57,14.65-19,18-69.38,27.6-133.95,59.3-192,98-11,7.36-21.43,15-32,22-6.38,4.26-13.36,7-19,12-10.55,9.39-20.06,20-30,30-4.75,4.79-10.59,10-14,16v3c-1.73,2.8-7.44,3.41-9,6v6c4.89,4.66,9.19,11.38,16,14,11.07,4.26,26.68,5.25,38,8,8.64,2.1,20.47-.46,28,1v3c2.7,6.31-10.82,33.53-12,42-40.84.73-81.16-13.81-93-42-4.89-11.65,0-42.77,1-54h4c15.76-37.17,42.69-56.71,71-81,4.76-4.09,9.65-10.77,15-14,8.56-5.17,16.93-8.28,25-14,60.56-42.94,133.71-73.85,205-106,5.56-2.51,10.3-1.77,16-4,6.05-2.37,14.16-7.37,20-10,5.56-2.5,10.28-1.82,16-4,14.44-5.5,32.29-12,46-18l13-2c17.91-8.17,42.26-13.35,61-20l16-2c30.18-10.72,67.11-14.87,100-23,12.57-3.11,23,1.14,36-2,15.17-3.67,34.11-4,54-4h18c23.37,5.79,45.93,9.22,61,23,4.07,3.72,9.42,10,12,15,1.15,2.21,1.14,8.57,3,10Z" fill-rule="evenodd"/>
    <path d="M3104,1555h6c7.12,9.28,25.7,13.75,28,27-7.53,3.65-10.3,11.47-18,15-6.66,3-12.57,2.79-19,6-13.29,6.62-29.4,14-43,20l-11,2c-3,1.4-8.09,4.73-11,6l-11,2c-1.13.54-3.86,3.49-5,4l-9,2c-2.5,1.51-1.94,6.51-4,8h-13c-5.44-2.5-15.73,4.13-20,6l-10,1c-11,3.45-25.18,9.12-36,13l-14,2c-3.36,1.21-8.28,4-12,5l-12,1c-18.85,6.73-43.48,11.74-64,17h-12c-17.95,4.51-37.65,9.77-60,10v-2c9.48-12.88,14.62-38.92,28-47,6.68-4,14.84-.71,24-3,6.42-1.61,15.34-4.32,22-6h10c18.41-5.36,42.63-9.63,60-17l16-2c14.35-5.07,31.39-11.39,46-16,4.87-1.53,14.35,3.55,20,5,14.66,3.75,39.23,1.71,52-3,13.12-4.84,28.31-14.25,37-24,5.76-6.47,9.31-21,17-25C3090.52,1559.6,3099.17,1559.71,3104,1555Z" fill-rule="evenodd"/>
  </g>
</svg>
